<svg id="Layer_1" viewBox="0 0 512 512" xmlns="http://www.w3.org/2000/svg" data-name="Layer 1"><g fill-rule="evenodd"><path d="m429.015 163.094c-16.626 10.15-38.139 11.131-56.196.705-26.302-15.185-35.314-48.818-20.128-75.12 15.185-26.302 48.817-35.313 75.12-20.128 18.057 10.426 27.965 29.547 27.487 49.02l-49.852-28.782-26.283 15.174v30.348s49.852 28.782 49.852 28.782z" fill="#7986bf"/><path d="m367.104 160.011c-21.821-16.488-28.441-47.036-14.414-71.331s43.791-33.835 68.981-23.183c14.412 10.894 22.191 27.921 21.767 45.228l-37.992-21.935-11.859-6.847-26.283 15.174v30.349s11.859 6.846 11.859 6.846l37.993 21.935c-14.776 9.02-33.411 10.798-50.052 3.764z" fill="#909cd1"/><path d="m327.893 87.299-75.023-34.097 19.185-33.229 67.039 47.923z" fill="#909cd1"/><path d="m258.471 43.5 13.584-23.527 67.039 47.923-5.6 9.701z" fill="#bdc7f2"/><path d="m118.281 147.881-12.738 130.894h77.618l-12.739-130.894z" fill="#909cd1"/><path d="m118.281 147.881-12.738 130.894h60.218l-12.739-130.894z" fill="#bdc7f2"/><path d="m123.69 128.252 41.323 39.258 109.127-119.244-23.355-23.356z" fill="#909cd1"/><path d="m250.785 24.91-126.794 103.097 30.394 28.875 109.127-119.244z" fill="#bdc7f2"/><path d="m269.105 11.796c13.692 3.669 21.817 17.742 18.149 31.434-3.669 13.692-17.742 21.817-31.434 18.149-13.692-3.669-21.817-17.742-18.148-31.434s17.742-21.817 31.434-18.149z" fill="#5d689e"/><path d="m255.66 61.334c-13.595-3.735-21.643-17.751-17.989-31.389 2.442-9.113 9.494-15.759 17.974-18.104 13.595 3.735 21.643 17.751 17.989 31.389-2.442 9.113-9.494 15.759-17.974 18.104z" fill="#7986bf"/></g><circle cx="144.352" cy="147.881" fill="#7986bf" r="37.168"/><path d="m138.802 184.632c-7.587-1.139-14.89-4.628-20.731-10.47-14.515-14.515-14.515-38.048 0-52.563 5.842-5.842 13.144-9.331 20.731-10.47 7.588 1.139 14.89 4.628 20.731 10.47 14.515 14.515 14.515 38.048 0 52.563-5.842 5.842-13.144 9.331-20.731 10.47z" fill="#909cd1" fill-rule="evenodd"/><path d="m90.381 278.775h107.943v-13.652c0-7.509-6.143-13.652-13.652-13.652h-80.64c-7.508 0-13.652 6.143-13.652 13.652v13.652z" fill="#495586" fill-rule="evenodd"/><path d="m90.381 278.775h84.543v-13.652c0-7.509-6.143-13.652-13.652-13.652h-57.239c-7.508 0-13.652 6.143-13.652 13.652z" fill="#5d689e" fill-rule="evenodd"/><path d="m314.277 66.502c6.128-10.613 19.698-14.249 30.311-8.122s14.249 19.698 8.122 30.311c-6.128 10.613-19.699 14.249-30.312 8.122s-14.249-19.698-8.122-30.311z" fill="#5d689e" fill-rule="evenodd"/><path d="m314.277 66.502c2.989-5.177 7.75-8.693 13.075-10.227 1.688.489 3.346 1.187 4.936 2.105 10.613 6.127 14.249 19.698 8.122 30.311-2.989 5.178-7.75 8.694-13.075 10.227-1.689-.489-3.346-1.187-4.936-2.105-10.613-6.127-14.249-19.698-8.122-30.311z" fill="#7986bf" fill-rule="evenodd"/><path d="m45.006 443.954h171.638v-165.179h-150.33c-11.72 0-21.308 9.588-21.308 21.308v143.87z" fill="#909cd1" fill-rule="evenodd"/><path d="m45.006 443.954h153.317v-165.179h-132.009c-11.72 0-21.308 9.588-21.308 21.308v143.87z" fill="#bdc7f2" fill-rule="evenodd"/><path d="m216.644 278.775h269.861c8.019 0 14.579 7.24 14.579 16.088s-6.561 16.089-14.579 16.089h-269.861z" fill="#fdb0a0" fill-rule="evenodd"/><path d="m216.644 278.775h269.861c4.669 0 8.842 2.454 11.515 6.251.042.393.064.791.064 1.193 0 7.065-6.561 12.844-14.579 12.844h-266.861v-20.289z" fill="#ffcec0" fill-rule="evenodd"/><path d="m240.656 188.757h90.018v90.018h-90.018z" fill="#f29988"/><path d="m367.665 188.757h90.018v90.018h-90.018z" fill="#f29988"/><path d="m397.225 188.757h30.899v29.087h-30.899z" fill="#ffcec0"/><path d="m270.215 188.757h30.899v29.087h-30.899z" fill="#ffcec0"/><path d="m44.977 349.812h382.661c34.125 0 62.045 27.92 62.045 62.045 0 34.125-27.92 62.045-62.045 62.045h-382.661v-124.089z" fill="#5d689e" fill-rule="evenodd"/><path d="m44.977 349.812h382.661c17.242 0 32.897 7.13 44.171 18.585 5.259 9.103 8.274 19.646 8.274 30.859 0 34.125-27.92 62.045-62.045 62.045h-373.061z" fill="#909cd1" fill-rule="evenodd"/><path d="m427.639 443.251c17.291 0 31.394-14.103 31.394-31.394s-14.103-31.395-31.394-31.395-31.395 14.103-31.395 31.395 14.104 31.394 31.395 31.394z" fill="#495586" fill-rule="evenodd"/><path d="m433.338 380.98c14.617 2.681 25.694 15.485 25.694 30.877s-11.077 28.195-25.694 30.877c-14.617-2.681-25.694-15.485-25.694-30.877s11.077-28.195 25.694-30.877z" fill="#5d689e" fill-rule="evenodd"/><path d="m139.125 347.333 10.373-6.957c1.69-1.133 3.891-.918 5.329.52l16.055 16.055c1.438 1.438 1.653 3.64.52 5.329l-6.956 10.374 8.824 21.298 12.252 2.416c1.996.393 3.401 2.102 3.401 4.136v22.705c0 2.034-1.404 3.743-3.4 4.137l-12.252 2.416-8.824 21.298 6.956 10.374c1.133 1.689.918 3.891-.52 5.329l-16.055 16.054c-1.438 1.439-3.639 1.654-5.329.521l-10.374-6.957-21.298 8.823-2.416 12.253c-.393 1.996-2.102 3.4-4.136 3.4h-22.705c-2.035 0-3.743-1.404-4.137-3.4l-2.416-12.253-21.298-8.823-10.374 6.957c-1.689 1.133-3.891.918-5.329-.521l-16.055-16.054c-1.438-1.438-1.654-3.64-.52-5.329l6.957-10.374-8.824-21.298-12.252-2.416c-1.996-.394-3.4-2.102-3.4-4.137v-22.705c0-2.035 1.405-3.743 3.401-4.136l12.252-2.416 8.824-21.298-6.957-10.374c-1.133-1.689-.918-3.891.52-5.329l16.055-16.055c1.438-1.438 3.639-1.653 5.329-.52l10.374 6.957 21.298-8.824 2.416-12.252c.393-1.996 2.102-3.4 4.136-3.4h22.705c2.034 0 3.743 1.404 4.136 3.4l2.416 12.252z" fill="#f9ac00" fill-rule="evenodd"/><path d="m139.125 347.333 7.528-5.048 17.118 17.117-8.887 13.252 8.824 21.298 15.653 3.086v29.637l-15.653 3.086-8.824 21.298 8.887 13.252-17.118 17.117-15.277-10.244-22.157 9.18-4.041 20.492h-16.608c-2.034 0-3.743-1.404-4.136-3.401l-2.416-12.253-29.225-12.106-10.473 7.023-13.358-13.358c-1.439-1.438-1.654-3.64-.52-5.329l6.957-10.374-8.824-21.298-12.252-2.416c-1.996-.394-3.4-2.102-3.4-4.137v-22.705c0-2.035 1.404-3.743 3.4-4.137l12.252-2.416 8.824-21.298-6.957-10.373c-1.133-1.69-.918-3.891.52-5.33l13.358-13.358 10.473 7.023 7.927-3.284 21.298-8.824 2.416-12.252c.394-1.996 2.102-3.401 4.136-3.401h16.608l4.041 20.493 22.157 9.18 7.749-5.196z" fill="#fcdb35" fill-rule="evenodd"/><circle cx="92.673" cy="411.856" fill="#f9ac00" r="45.642" transform="matrix(.16 -.987 .987 .16 -328.709 437.361)"/><circle cx="99.922" cy="411.856" fill="#fff" r="45.642" transform="matrix(.16 -.987 .987 .16 -322.622 444.516)"/><circle cx="292.949" cy="411.856" fill="#495586" r="31.395" transform="matrix(.055 -.998 .998 .055 -134.477 681.581)"/><path d="m298.649 380.98c14.617 2.681 25.694 15.485 25.694 30.877s-11.077 28.195-25.694 30.877c-14.617-2.681-25.694-15.485-25.694-30.877s11.077-28.195 25.694-30.877z" fill="#5d689e" fill-rule="evenodd"/><path d="m444.453 188.757h13.23v90.018h-13.23z" fill="#ea806f"/><path d="m317.444 188.757h13.23v90.018h-13.23z" fill="#ea806f"/><path d="m136.543 155.688c-4.29-4.314-4.29-11.303 0-15.612 4.338-4.314 11.327-4.314 15.617 0 4.338 4.309 4.338 11.298 0 15.612-4.29 4.309-11.279 4.309-15.617 0zm371.56 140.041v-1.733c-.428-12.33-9.943-22.221-21.577-22.221h-21.835v-83.016c0-3.866-3.133-6.999-6.989-6.999h-90.038c-3.856 0-6.989 3.133-6.989 6.999v83.016h-22.992v-83.016c0-3.866-3.133-6.999-6.989-6.999h-90.038c-3.856 0-6.989 3.133-6.989 6.999v83.016h-28.342v-6.652c0-10.643-8.098-19.43-18.461-20.533l-6.844-70.618c4.724-6.44 7.471-13.877 8.242-21.488l76.205-83.281c1.735-.106 3.422-.352 5.109-.728l35.62 16.19c.048.164.097.323.097.487 2.024 7.529 6.892 13.824 13.641 17.723 4.483 2.598 9.447 3.924 14.508 3.924 1.928 0 3.808-.188 5.736-.564-4.001 24.669 7.278 50.389 30.173 63.605 9.592 5.543 20.292 8.305 30.993 8.305 11.182 0 22.413-3.037 32.294-9.095 2.121-1.287 3.422-3.591 3.374-6.064-.048-2.468-1.35-4.738-3.519-5.972l-46.321-26.751v-22.249l19.28-11.13 46.321 26.751c2.169 1.234 4.772 1.248 6.941.043 2.169-1.21 3.519-3.466 3.567-5.933.578-22.717-11.327-43.882-30.993-55.233-14.315-8.276-30.993-10.474-46.995-6.194-8.628 2.314-16.485 6.372-23.185 11.857-2.217-6.464-6.651-12.185-13.014-15.858-7.134-4.111-15.279-4.863-22.606-2.767l-31.86-22.76c-.675-2.251-1.639-4.444-2.844-6.536-4.386-7.558-11.423-12.961-19.858-15.222-1.685-.451-3.384-.765-5.083-.944h-6.836c-4.471.477-8.834 1.89-12.855 4.208-7.567 4.367-12.966 11.409-15.231 19.835-.386 1.537-.723 3.09-.867 4.647l-87.339 70.994c-10.749.4-21.401 4.69-29.595 12.879-15.569 15.598-17.063 40.05-4.386 57.32l-6.893 70.618c-10.363 1.104-18.461 9.891-18.461 20.533v6.652h-17.063c-15.569 0-28.294 12.701-28.294 28.308v37.871l-14.026 14.007c-3.76 3.784-4.338 9.751-1.35 14.19l4.868 7.264-5.977 14.383-8.58 1.692c-5.254 1.036-9.061 5.668-9.061 11.014v22.707c0 5.35 3.808 9.982 9.061 11.014l8.58 1.692 5.977 14.383-4.868 7.264c-2.988 4.439-2.41 10.411 1.35 14.19l16.099 16.055c3.76 3.784 9.736 4.362 14.171 1.383l7.278-4.868 14.364 5.962 1.687 8.575c1.06 5.244 5.688 9.052 11.038 9.052h22.702c5.35 0 9.978-3.808 10.99-9.052l1.687-8.575 14.412-5.962 7.23 4.868c4.483 2.979 10.411 2.4 14.219-1.383l6.893-6.907h260.907c38.078 0 69.071-30.974 69.071-69.047s-30.993-69.042-69.071-69.042h-204.032v-24.862h262.885c11.634 0 21.149-9.887 21.577-22.221zm-278.292 144.968c0-3.866 3.133-6.999 6.989-6.999h11.086c3.856 0 6.989 3.133 6.989 6.999s-3.133 6.999-6.989 6.999h-11.086c-3.856 0-6.989-3.133-6.989-6.999zm-33.403-57.681c0-3.871 3.133-7.004 6.989-7.004h11.086c3.856 0 6.989 3.133 6.989 7.004s-3.133 6.998-6.989 6.998h-11.086c-3.856 0-6.989-3.138-6.989-6.998zm33.403 0c0-3.871 3.133-7.004 6.989-7.004h11.086c3.856 0 6.989 3.133 6.989 7.004s-3.133 6.998-6.989 6.998h-11.086c-3.856 0-6.989-3.138-6.989-6.998zm-33.403 57.681c0-3.866 3.133-6.999 6.989-6.999h11.086c3.856 0 6.989 3.133 6.989 6.999s-3.133 6.999-6.989 6.999h-11.086c-3.856 0-6.989-3.133-6.989-6.999zm159.784 0c0 3.866-3.133 6.999-6.989 6.999h-11.086c-3.904 0-7.037-3.133-7.037-6.999s3.133-6.999 7.037-6.999h11.086c3.856 0 6.989 3.133 6.989 6.999zm8.29 0c0-3.866 3.133-6.999 6.989-6.999h11.134c3.856 0 6.989 3.133 6.989 6.999s-3.133 6.999-6.989 6.999h-11.134c-3.856 0-6.989-3.133-6.989-6.999zm-33.403-57.681c0-3.871 3.133-7.004 7.037-7.004h11.086c3.856 0 6.989 3.133 6.989 7.004s-3.133 6.998-6.989 6.998h-11.086c-3.904 0-7.037-3.138-7.037-6.998zm33.403 0c0-3.871 3.133-7.004 6.989-7.004h11.134c3.856 0 6.989 3.133 6.989 7.004s-3.133 6.998-6.989 6.998h-11.134c-3.856 0-6.989-3.138-6.989-6.998zm-71.481 4.444c13.448 0 24.39 10.946 24.39 24.394s-10.942 24.399-24.39 24.399-24.389-10.946-24.389-24.399 10.941-24.394 24.389-24.394zm0 62.791c-21.16 0-38.416-17.222-38.416-38.397s17.256-38.391 38.416-38.391 38.368 17.222 38.368 38.391-17.208 38.397-38.368 38.397zm134.672-62.791c13.448 0 24.389 10.946 24.389 24.394s-10.942 24.399-24.389 24.399-24.39-10.946-24.39-24.399 10.942-24.394 24.39-24.394zm0 62.791c-21.16 0-38.368-17.222-38.368-38.397s17.207-38.391 38.368-38.391 38.416 17.222 38.416 38.391-17.256 38.397-38.416 38.397zm-327.715.275c-21.305 0-38.657-17.343-38.657-38.671s17.352-38.671 38.657-38.671 38.657 17.352 38.657 38.671-17.304 38.671-38.657 38.671zm0-91.34c29.065 0 52.683 23.628 52.683 52.668s-23.618 52.673-52.683 52.673-52.683-23.628-52.683-52.673 23.666-52.668 52.683-52.668zm66.806-16.374-6.893-6.907c-3.808-3.779-9.736-4.362-14.219-1.383l-7.23 4.868-14.412-5.962-1.687-8.575c-1.012-5.244-5.64-9.052-10.99-9.052h-22.702c-5.35 0-9.977 3.808-11.038 9.052l-1.687 8.575-14.364 5.962-7.278-4.873c-.723-.477-1.495-.848-2.266-1.147v-33.287c0-7.89 6.459-14.306 14.316-14.306h143.35v57.036h-42.898zm315.953 69.042c0 30.352-24.679 55.045-55.045 55.045h-248.905c.867-3.095.434-6.522-1.446-9.337l-4.869-7.264 5.929-14.383 8.58-1.692c5.254-1.032 9.061-5.663 9.061-11.014v-22.707c0-5.345-3.808-9.977-9.061-11.014l-8.58-1.692-5.929-14.383 4.869-7.264c1.88-2.815 2.313-6.242 1.446-9.336h248.907c30.366 0 55.045 24.693 55.045 55.04zm-331.137 64.444-8.483-5.692c-1.928-1.301-4.435-1.547-6.604-.651l-21.304 8.83c-2.169.896-3.712 2.815-4.194 5.114l-1.976 10.016h-18.123l-1.976-10.016c-.482-2.299-2.025-4.218-4.194-5.114l-21.305-8.83c-2.169-.897-4.627-.65-6.603.651l-8.483 5.692-12.821-12.836 5.688-8.479c1.301-1.947 1.542-4.415.675-6.579l-8.821-21.31c-.916-2.164-2.844-3.735-5.157-4.188l-9.978-1.976v-18.147l9.978-1.976c2.314-.453 4.241-2.024 5.157-4.189l8.821-21.309c.868-2.164.627-4.632-.675-6.579l-5.688-8.484 12.87-12.831 8.435 5.688c1.976 1.306 4.434 1.552 6.603.655l21.305-8.83c2.169-.897 3.711-2.815 4.194-5.114l1.976-10.016h18.123l1.976 10.016c.482 2.299 2.024 4.218 4.194 5.114l21.304 8.83c2.169.897 4.627.651 6.604-.655l8.483-5.688 12.821 12.836-5.688 8.479c-1.301 1.947-1.542 4.415-.675 6.579l8.869 21.309c.868 2.164 2.796 3.736 5.109 4.189l10.026 1.976v18.147l-10.026 1.976c-2.314.453-4.241 2.024-5.109 4.188l-8.869 21.31c-.867 2.164-.627 4.632.675 6.579l5.688 8.479-12.821 12.836zm-54.177-211.176c0-3.668 2.988-6.652 6.651-6.652h80.639c3.663 0 6.651 2.984 6.651 6.652v6.652h-93.939v-6.652zm25.643-138.576c-11.761 11.766-11.761 30.906 0 42.667s30.896 11.761 42.657 0 11.761-30.901 0-42.667c-5.88-5.88-13.593-8.821-21.353-8.821-7.712 0-15.424 2.94-21.305 8.821zm121.418-94.791c1.301-4.815 4.338-8.84 8.676-11.332 2.892-1.663 6.073-2.511 9.303-2.511 1.639 0 3.277.212 4.868.646 4.82 1.292 8.821 4.381 11.327 8.695 2.506 4.319 3.133 9.351 1.88 14.166-1.301 4.815-4.386 8.84-8.724 11.332-4.29 2.497-9.351 3.157-14.171 1.865-4.772-1.292-8.821-4.377-11.327-8.695-2.458-4.319-3.133-9.351-1.832-14.166zm96.642 32.685c7.23 4.189 9.737 13.486 5.591 20.741 0 .005-.048.005-.048.01v.014c-2.025 3.509-5.302 6.015-9.206 7.066s-8.001.511-11.52-1.518-6.025-5.307-7.086-9.226c-1.06-3.919-.53-8.011 1.494-11.524 4.194-7.254 13.544-9.746 20.774-5.562zm46.803 5.403c4.145-1.109 8.339-1.658 12.484-1.658 8.339 0 16.533 2.184 23.907 6.449 11.472 6.608 19.473 17.521 22.606 30.01l-37.934-21.902c-2.169-1.253-4.868-1.253-7.037 0l-26.269 15.164c-2.121 1.253-3.47 3.562-3.47 6.064v30.338c0 2.497 1.35 4.81 3.47 6.059l37.934 21.902c-12.339 3.562-25.787 2.058-37.259-4.55-22.895-13.226-30.8-42.619-17.545-65.524 6.411-11.096 16.726-19.034 29.113-22.35zm-93.895-24.804c.096-.212.096-.434.193-.651l18.22 13.033c-1.591 1.653-2.988 3.514-4.193 5.582-1.205 2.049-2.121 4.203-2.747 6.415l-20.389-9.264c4.29-4.078 7.375-9.259 8.917-15.116zm-59.817 7.881c3.326 5.798 8.242 10.324 14.171 13.139l-62.082 67.88c-2.121-6.324-5.64-12.267-10.701-17.289-4.29-4.309-9.254-7.538-14.605-9.693l71.288-57.956c.53 1.335 1.205 2.646 1.928 3.919zm-89.845 139.106c7.905 0 15.762-2.097 22.751-6.276l5.688 58.718h-56.877l5.736-58.718c6.941 4.179 14.846 6.276 22.702 6.276zm103.342 3.731h15.52v22.085c0 3.866 3.133 7.004 7.037 7.004h30.897c3.856 0 6.989-3.138 6.989-7.004v-22.085h15.569v76.017h-76.012zm29.547 0h16.87v15.087h-16.87zm97.461 0h15.521v22.085c0 3.866 3.133 7.004 7.037 7.004h30.896c3.856 0 6.989-3.138 6.989-7.004v-22.085h15.569v76.017h-76.012zm29.547 0h16.918v15.087h-16.918zm89.845 99.105c0 4.926-3.47 9.09-7.567 9.09h-262.885v-18.176h262.885c4.097 0 7.567 4.16 7.567 9.086z" fill-rule="evenodd"/></svg>