<svg xmlns="http://www.w3.org/2000/svg" viewBox="0 0 202 85.11"><defs><style>.cls-1{fill:#6d6e70;}.cls-2{fill:#d4272e;}.cls-3{fill:#727372;}</style></defs><title>DNow_Logo-</title><g id="Layer_2" data-name="Layer 2"><g id="Layer_1-2" data-name="Layer 1"><path class="cls-1" d="M94,79.34c-17.36,0-27.53-8.75-27.53-25.68C66.43,37,76.6,28,94,28s27.74,9,27.74,25.68c0,16.93-10.38,25.68-27.74,25.68m0-12c7.54,0,7.75-8.4,7.82-13.73-.07-4.63-.57-13.73-7.82-13.73-7,0-7.61,9.1-7.61,13.73,0,5.33.78,13.73,7.61,13.73"/><polygon class="cls-1" points="197.77 46.4 190.05 78.46 168.16 78.46 161.26 48.87 161.11 48.87 154.64 78.46 132.32 78.46 120.73 28.83 138.1 28.83 144.62 61.96 144.76 61.96 151.78 28.83 171.94 28.83 178.75 61.96 178.89 61.96 185.48 28.83 186.14 28.83 197.77 46.4"/><polygon class="cls-2" points="191.38 28.83 202 28.83 199.17 40.61 191.38 28.83"/><polygon class="cls-2" points="49.12 85.11 11.95 28.82 0 28.82 0 78.46 21.8 78.46 21.8 59.11 49.12 85.11"/><polygon class="cls-1" points="13.52 22.29 50.62 78.44 62.64 78.45 62.64 28.82 40.84 28.82 40.84 48.29 13.52 22.29"/><path class="cls-1" d="M198.34,72a3.3,3.3,0,1,1-3.2,3.3A3.25,3.25,0,0,1,198.34,72Zm0,6a2.68,2.68,0,1,0-2.54-2.68A2.59,2.59,0,0,0,198.34,77.93Zm-1.1-4.4h1.31a1,1,0,0,1,1.07,1,.9.9,0,0,1-.62.9v0a.92.92,0,0,1,.12.19l.65,1.25h-.7l-.64-1.31h-.55v1.31h-.64Zm1.19,1.62a.53.53,0,0,0,.55-.58.51.51,0,0,0-.55-.55h-.55v1.13Z"/><path class="cls-3" d="M24.34.21h4.29c3.89,0,6.43,2.31,6.43,6.29s-2.54,6.32-6.43,6.32H24.34Zm4.17,10.64c2.56,0,4.19-1.51,4.19-4.35S31,2.18,28.51,2.18H26.63v8.67Z"/><path class="cls-3" d="M40.3.21h2.29V12.82H40.3Z"/><path class="cls-3" d="M48.91,9.59a5.06,5.06,0,0,0,3.14,1.33c1,0,1.83-.5,1.83-1.53,0-2.25-6-1.86-6-5.73,0-2.1,1.81-3.66,4.23-3.66a5.36,5.36,0,0,1,3.76,1.35l-1,1.86a4.62,4.62,0,0,0-2.79-1.1c-1.07,0-1.9.62-1.9,1.51,0,2.24,5.93,1.69,5.93,5.72,0,2-1.53,3.69-4.16,3.69a6.12,6.12,0,0,1-4.35-1.72Z"/><path class="cls-3" d="M63.91,2.18H59.77v-2H70.34v2H66.2V12.82H63.91Z"/><path class="cls-3" d="M74.85.21h4.06a5.81,5.81,0,0,1,2.54.36A3.56,3.56,0,0,1,83.51,4a3.64,3.64,0,0,1-2.13,3.45v0a3.15,3.15,0,0,1,.43.62l2.59,4.71H81.84l-2.5-4.71h-2.2v4.71H74.85ZM79.2,6.13a1.83,1.83,0,0,0,2-2c0-1.21-.51-2-2.3-2H77.14v4Z"/><path class="cls-3" d="M89.37.21h2.29V12.82H89.37Z"/><path class="cls-3" d="M97.69.21h4.51c2.28,0,3.89,1.18,3.89,3.25a3,3,0,0,1-1.52,2.7v0a3,3,0,0,1,2,3c0,2.52-2,3.66-4.35,3.66H97.69Zm4.51,5.15a1.51,1.51,0,0,0,1.57-1.61,1.46,1.46,0,0,0-1.6-1.57H100V5.36Zm.23,5.49A1.71,1.71,0,0,0,104.26,9a1.71,1.71,0,0,0-1.83-1.81H100v3.64Z"/><path class="cls-3" d="M111.75.21h2.3V8.29a2.8,2.8,0,0,0,5.59,0V.21h2.29V8.29c0,2.82-2,4.74-5.08,4.74s-5.1-1.92-5.1-4.74Z"/><path class="cls-3" d="M130.4,2.18h-4.14v-2h10.56v2h-4.13V12.82H130.4Z"/><path class="cls-3" d="M141.33.21h2.29V12.82h-2.29Z"/><path class="cls-3" d="M155.3,0a6.36,6.36,0,0,1,6.52,6.43,6.52,6.52,0,1,1-13,0A6.36,6.36,0,0,1,155.3,0Zm0,10.94a4.28,4.28,0,0,0,4.16-4.51,4.16,4.16,0,1,0-8.31,0A4.27,4.27,0,0,0,155.3,10.94Z"/><path class="cls-3" d="M167,.21h2.29l4.77,7.28a19.23,19.23,0,0,1,1,2h0s-.13-1.21-.13-2V.21h2.27V12.82H175l-4.77-7.26a19.23,19.23,0,0,1-1.05-2h0s.13,1.21.13,2v7.26H167Z"/></g></g></svg>