<svg height="480pt" viewBox="0 0 480.00751 480" width="480pt" xmlns="http://www.w3.org/2000/svg"><path d="m392 336.003906c-56 0-64-16-112-16-27.5-.394531-54.769531 5.058594-80 16-.300781 50.675782 27.601562 97.316406 72.394531 121.015625 44.789063 23.699219 99.046875 20.53125 140.773438-8.222656 41.730469-28.757813 64.007812-78.328125 57.808593-128.625-25.050781 10.34375-51.875 15.71875-78.976562 15.832031zm0 0" fill="#ffb655"/><path d="m392 336.003906c27.101562-.113281 53.925781-5.488281 78.976562-15.832031-6.265624-53.503906-43.507812-98.269531-94.976562-114.167969v-78h-80v78c-57.058594 17.574219-95.992188 70.296875-96 130 25.230469-10.941406 52.5-16.394531 80-16 48 0 56 16 112 16zm0 0" fill="#f1f2f2"/><path d="m32 144.003906h80v264c0 22.089844-17.910156 40-40 40s-40-17.910156-40-40zm0 0" fill="#ffd422"/><path d="m32 40.003906v117.601563c13.320312 0 13.320312 4.796875 26.640625 4.796875s13.335937-4.796875 26.679687-4.796875 13.335938 4.796875 26.679688 4.796875v-122.398438zm0 0" fill="#f1f2f2"/><g fill="#e6e7e8"><path d="m192 216.003906c8.835938 0 16-7.164062 16-16 0-8.835937-7.164062-16-16-16h-96c-8.835938 0-16 7.164063-16 16 0 8.835938 7.164062 16 16 16zm0 0"/><path d="m120 40.003906c8.835938 0 16-7.164062 16-16 0-8.835937-7.164062-16-16-16h-96c-8.835938 0-16 7.164063-16 16 0 8.835938 7.164062 16 16 16zm0 0"/><path d="m400 112.003906c0-8.835937-7.164062-16-16-16h-96c-8.835938 0-16 7.164063-16 16 0 8.835938 7.164062 16 16 16h96c8.835938 0 16-7.164062 16-16zm0 0"/></g><path d="m392 280.003906c0 8.835938-7.164062 16-16 16s-16-7.164062-16-16c0-8.835937 7.164062-16 16-16s16 7.164063 16 16zm0 0" fill="#ffb655"/><path d="m184 128.003906c0 8.835938-7.164062 16-16 16s-16-7.164062-16-16c0-8.835937 7.164062-16 16-16s16 7.164063 16 16zm0 0" fill="#00d7df"/><path d="m269.886719 421.980469-27.671875-40.59375c-18.386719-8.09375-38.140625-12.632813-58.214844-13.382813-32 0-48 16-80 16-17.820312-.230468-35.328125-4.730468-51.046875-13.128906l-34.839844 51.105469c-6.683593 9.800781-7.394531 22.492187-1.851562 32.976562s16.429687 17.046875 28.289062 17.046875h198.898438c11.859375 0 22.746093-6.5625 28.289062-17.046875s4.832031-23.175781-1.851562-32.976562zm0 0" fill="#00d7df"/><path d="m184 368.003906c20.074219.75 39.828125 5.289063 58.214844 13.382813l-58.214844-85.382813v-80h-80v80l-51.046875 74.871094c15.71875 8.398438 33.226563 12.898438 51.046875 13.128906 32 0 48-16 80-16zm0 0" fill="#f1f2f2"/><path d="m32 40.003906h80v16h-80zm0 0" fill="#d1d3d4"/><path d="m104 216.003906h80v16h-80zm0 0" fill="#d1d3d4"/><path d="m296 128.003906h80v16h-80zm0 0" fill="#d1d3d4"/><path d="m384 200.21875v-64.214844c13.253906 0 24-10.746094 24-24s-10.746094-24-24-24h-96c-13.253906 0-24 10.746094-24 24s10.746094 24 24 24v64.222656c-45.257812 15.996094-79.5625 53.5-91.464844 100l-4.535156-6.695312v-69.527344c13.253906 0 24-10.746094 24-24s-10.746094-24-24-24h-72v-128c13.253906 0 24-10.746094 24-24s-10.746094-23.99999975-24-23.99999975h-96c-13.253906 0-24 10.74609375-24 23.99999975s10.746094 24 24 24v351.128906l-12.503906 18.335938c-8.355469 12.25-9.246094 28.113281-2.316406 41.222656 6.925781 13.109375 20.535156 21.3125 35.363281 21.3125h198.914062c11.714844-.011718 22.832031-5.175781 30.398438-14.121094 48.058593 22.996094 104.886719 17.578126 147.734375-14.085937s64.710937-84.398437 56.835937-137.089844c-7.871093-52.691406-44.195312-96.730469-94.425781-114.488281zm-104-88.214844c0-4.417968 3.582031-8 8-8h96c4.417969 0 8 3.582032 8 8 0 4.417969-3.582031 8-8 8h-96c-4.417969 0-8-3.582031-8-8zm18.398438 101.648438c3.339843-1.050782 5.609374-4.148438 5.601562-7.648438v-70h64v70c0 3.511719 2.289062 6.613282 5.648438 7.648438 46.949218 14.28125 81.5 54.289062 88.800781 102.816406-4.128907 1.304688-8.089844 2.65625-11.839844 4-17.765625 7.117188-36.796875 10.546875-55.929687 10.078125-19.132813.464844-38.160157-2.964844-55.925782-10.078125-19.53125-7.765625-40.421875-11.519531-61.433594-11.039062-20.972656-.464844-41.828124 3.289062-61.320312 11.046874-1.480469.535157-3.03125 1.046876-4.535156 1.597657l-2.191406-3.199219c6.613281-49.46875 41.421874-90.558594 89.125-105.222656zm-121.007813 86.855468 45.378906 66.550782c-12.425781-4.460938-25.570312-6.582032-38.769531-6.253906-14.609375-.335938-29.132812 2.273437-42.710938 7.671874-11.84375 4.75-24.53125 7.039063-37.289062 6.726563-12.707031.300781-25.34375-1.964844-37.152344-6.664063-.679687-.246093-1.414062-.496093-2.121094-.742187l45.882813-67.289063c.90625-1.328124 1.390625-2.898437 1.390625-4.503906v-72h64v72c0 1.605469.484375 3.175782 1.390625 4.503906zm22.609375-100.503906c0 4.417969-3.582031 8-8 8h-96c-4.417969 0-8-3.582031-8-8 0-4.417968 3.582031-8 8-8h96c4.417969 0 8 3.582032 8 8zm-184-176c0-4.417968 3.582031-8 8-8h96c4.417969 0 8 3.582032 8 8 0 4.417969-3.582031 8-8 8h-96c-4.417969 0-8-3.582031-8-8zm88 24v32h-24v16h24v31.785156h-24v16h24v9.597657c-.878906-.269531-1.742188-.558594-2.640625-.878907-5.105469-2-10.554687-2.972656-16.039063-2.871093-5.488281-.101563-10.945312.875-16.054687 2.871093-3.375 1.359376-6.992187 2.003907-10.625 1.894532-3.644531.105468-7.265625-.550782-10.640625-1.925782-2.59375-.972656-5.273438-1.703124-8-2.183593v-102.289063zm-64 118.65625c.871094.261719 1.71875.550782 2.609375.871094 5.09375 1.992188 10.527344 2.96875 16 2.871094 5.480469.105468 10.933594-.871094 16.039063-2.871094 3.375-1.371094 6.996093-2.027344 10.640624-1.925781 3.636719-.101563 7.253907.554687 10.621094 1.925781 2.625.976562 5.332032 1.707031 8.089844 2.191406v6.28125h-8c-13.253906 0-24 10.746094-24 24s10.746094 24 24 24v69.527344l-56 82.136719zm224.671875 284.542969c-4.09375 7.925781-12.296875 12.875-21.214844 12.800781h-198.914062c-8.894531-.003906-17.058594-4.921875-21.214844-12.789062-4.152344-7.863282-3.617187-17.382813 1.390625-24.730469l30.664062-44.976563c2.042969.664063 4.042969 1.367188 6.089844 2.097657 13.527344 5.339843 27.988282 7.925781 42.527344 7.597656 14.609375.335937 29.132812-2.273437 42.710938-7.671875 11.84375-4.75 24.53125-7.039062 37.289062-6.726562 12.777344-.308594 25.488281 1.980468 37.351562 6.734374 5.226563 1.96875 10.570313 3.617188 16 4.929688l25.921876 38.015625c5.089843 7.316406 5.632812 16.875 1.398437 24.71875zm71.328125 12.800781c-18.804688-.011718-37.375-4.15625-54.398438-12.144531 3.667969-11.640625 1.796876-24.316406-5.082031-34.398437l-55.71875-81.714844.613281-.214844c17.789063-7.132812 36.84375-10.5625 56-10.085938 19.160157-.464843 38.210938 2.96875 56 10.085938 19.492188 7.746094 40.339844 11.5 61.304688 11.03125 20.984375.476562 41.851562-3.273438 61.351562-11.03125 2.625-.945312 5.195313-1.863281 7.800782-2.742188 0 1.070313.128906 2.132813.128906 3.199219-.074219 70.664063-57.335938 127.933594-128 128.015625zm0 0"/><path d="m376 304.003906c13.253906 0 24-10.746094 24-24s-10.746094-24-24-24-24 10.746094-24 24 10.746094 24 24 24zm0-32c4.417969 0 8 3.582032 8 8 0 4.417969-3.582031 8-8 8s-8-3.582031-8-8c0-4.417968 3.582031-8 8-8zm0 0"/><path d="m168 152.003906c13.253906 0 24-10.746094 24-24s-10.746094-24-24-24-24 10.746094-24 24 10.746094 24 24 24zm0-32c4.417969 0 8 3.582032 8 8 0 4.417969-3.582031 8-8 8s-8-3.582031-8-8c0-4.417968 3.582031-8 8-8zm0 0"/><path d="m290.320312 261.683594c2.714844 2.769531 7.007813 3.230468 10.25 1.097656 3.238282-2.128906 4.515626-6.253906 3.050782-9.84375s-5.265625-5.640625-9.070313-4.894531c-3.804687.75-6.550781 4.082031-6.550781 7.960937-.027344 1.050782.191406 2.089844.640625 3.039063.40625.96875.972656 1.863281 1.679687 2.640625zm0 0"/><path d="m306.320312 370.324219c-3.105468 3.128906-3.09375 8.183593.03125 11.296875 3.121094 3.113281 8.175782 3.113281 11.296876 0 3.125-3.113282 3.136718-8.167969.03125-11.296875-3.207032-2.960938-8.152344-2.960938-11.359376 0zm0 0"/><path d="m399.359375 404.964844c-.179687-.507813-.417969-.992188-.71875-1.441406l-.960937-1.199219c-2.289063-2.308594-5.746094-3-8.746094-1.753907-3.003906 1.246094-4.953125 4.183594-4.933594 7.433594.011719 1.046875.230469 2.078125.640625 3.039063.40625.96875.972656 1.863281 1.679687 2.640625l1.191407.960937c.449219.300781.9375.542969 1.449219.71875.453124.230469.9375.394531 1.4375.480469.53125.089844 1.066406.144531 1.601562.160156.535156-.015625 1.070312-.066406 1.601562-.160156.5-.089844.984376-.25 1.4375-.480469.511719-.175781.996094-.417969 1.441407-.71875l1.199219-.960937c.707031-.777344 1.273437-1.671875 1.679687-2.640625.410156-.960938.628906-1.992188.640625-3.039063-.011719-.539062-.070312-1.074218-.167969-1.601562-.082031-.5-.238281-.988282-.472656-1.4375zm0 0"/><path d="m164.480469 329.363281c-.445313-.300781-.929688-.542969-1.441407-.71875-.476562-.242187-.996093-.40625-1.527343-.480469-2.609375-.523437-5.308594.285157-7.199219 2.160157-3.09375 3.152343-3.09375 8.203125 0 11.359375l1.191406.960937c.449219.300781.9375.542969 1.449219.71875.453125.230469.9375.394531 1.4375.480469.53125.089844 1.070313.144531 1.609375.160156.507812-.011718 1.011719-.066406 1.511719-.160156.53125-.074219 1.050781-.238281 1.527343-.480469.511719-.175781.996094-.417969 1.441407-.71875l1.199219-.960937c3.09375-3.15625 3.09375-8.207032 0-11.359375zm0 0"/><path d="m141.679688 282.324219c-.382813-.34375-.78125-.664063-1.199219-.960938-.445313-.300781-.929688-.542969-1.441407-.71875-.476562-.242187-.996093-.40625-1.527343-.480469-1.023438-.242187-2.089844-.242187-3.113281 0-.5.085938-.984376.25-1.4375.480469-.511719.175781-1 .417969-1.449219.71875-.414063.296875-.8125.617188-1.191407.960938-.707031.777343-1.273437 1.671875-1.679687 2.640625-.449219.949218-.667969 1.988281-.640625 3.039062.027344 2.117188.855469 4.148438 2.320312 5.679688l1.191407.960937c.449219.300781.9375.542969 1.449219.71875.453124.230469.9375.394531 1.4375.480469.53125.089844 1.066406.144531 1.601562.160156.507812-.011718 1.011719-.066406 1.511719-.160156.53125-.074219 1.050781-.238281 1.527343-.480469.511719-.175781.996094-.417969 1.441407-.71875l1.199219-.960937c1.460937-1.535156 2.289062-3.5625 2.320312-5.679688-.011719-1.046875-.230469-2.078125-.640625-3.039062-.40625-.96875-.972656-1.863282-1.679687-2.640625zm0 0"/><path d="m74.320312 274.324219c-1.464843 1.53125-2.292968 3.5625-2.320312 5.679687-.027344 1.050782.191406 2.089844.640625 3.039063.40625.96875.972656 1.863281 1.679687 2.640625 3.128907 3.105468 8.183594 3.089844 11.296876-.03125 3.113281-3.121094 3.113281-8.175782 0-11.296875-3.113282-3.125-8.167969-3.136719-11.296876-.03125zm0 0"/><path d="m61.601562 226.324219c-3.179687-2.960938-8.105468-2.960938-11.28125 0-3.09375 3.152343-3.09375 8.203125 0 11.359375l1.191407.960937c.449219.300781.9375.542969 1.449219.71875.453124.230469.9375.394531 1.4375.480469.53125.09375 1.066406.144531 1.601562.160156 4.40625-.03125 7.96875-3.59375 8-8-.011719-1.046875-.230469-2.078125-.640625-3.039062-.386719-1-.984375-1.902344-1.757813-2.640625zm0 0"/><path d="m352 56.003906v16h16v-16c0-4.417968 3.582031-8 8-8h32c13.253906 0 24-10.746094 24-24h-16c0 4.417969-3.582031 8-8 8h-32c-13.253906 0-24 10.746094-24 24zm0 0"/><path d="m320 32.003906c0-4.417968 3.582031-8 8-8h32c13.253906 0 24-10.746094 24-23.99999975h-16c0 4.41796875-3.582031 7.99999975-8 7.99999975h-32c-13.253906 0-24 10.746094-24 24v16h16zm0 0"/></svg>