<svg id="Duo_Tone" viewBox="0 0 64 64" xmlns="http://www.w3.org/2000/svg" data-name="Duo Tone"><g fill="#0c2d57"><path d="m22.75 58c0 1.05.39 2.01 1.03 2.75h-15.78c-2.62 0-4.75-2.13-4.75-4.75v-44c0-2.62 2.13-4.75 4.75-4.75h5.75v4h-5.75c-.41 0-.75.34-.75.75v44c0 .41.34.75.75.75h14.75z"/><path d="m46.75 12v12.75h-4v-12.75c0-.41-.34-.75-.75-.75h-5.75v-4h5.75c2.62 0 4.75 2.13 4.75 4.75z"/><path d="m36.17 12.75c-.35 1.99-2.08 3.5-4.17 3.5h-14c-2.09 0-3.82-1.51-4.17-3.5h-5.08v42.5h14v-8.25c0-.09 0-.17.01-.25h-8.76c-.41 0-.75-.34-.75-.75s.34-.75.75-.75h9.14c.66-1.47 2.14-2.5 3.86-2.5h5.54c-.48-.56-.83-1.25-.97-2h-17.57c-.41 0-.75-.34-.75-.75s.34-.75.75-.75h17.5v-4.5h-17.5c-.41 0-.75-.34-.75-.75s.34-.75.75-.75h17.5v-4.25c0-.09 0-.17.01-.25h-17.51c-.41 0-.75-.34-.75-.75s.34-.75.75-.75h17.89c.66-1.47 2.14-2.5 3.86-2.5h5.5v-12zm-.17 10h-22c-.41 0-.75-.34-.75-.75s.34-.75.75-.75h22c.41 0 .75.34.75.75s-.34.75-.75.75z"/></g><path d="m34 7.25h-4.3096c-.3604-2.2642-2.3262-4-4.6904-4s-4.3301 1.7358-4.6904 4h-4.3096c-.4141 0-.75.3359-.75.75v4c0 1.5166 1.2334 2.75 2.75 2.75h14c1.5166 0 2.75-1.2334 2.75-2.75v-4c0-.4141-.3359-.75-.75-.75z" fill="#0c2d57"/><g fill="#fc6736"><g><path d="m50 50.25h4c.1377 0 .25-.1123.25-.25v-5.75h-4.5v5.75c0 .1377.1123.25.25.25z"/><path d="m58 44.25h-2.25v5.75c0 .9648-.7852 1.75-1.75 1.75h-4c-.9648 0-1.75-.7852-1.75-1.75v-5.75h-2.25c-1.5166 0-2.75 1.2334-2.75 2.75v11c0 1.5166 1.2334 2.75 2.75 2.75h12c1.5166 0 2.75-1.2334 2.75-2.75v-11c0-1.5166-1.2334-2.75-2.75-2.75z"/></g><g><path d="m31 50.25h4c.1377 0 .25-.1123.25-.25v-5.75h-4.5v5.75c0 .1377.1123.25.25.25z"/><path d="m39 44.25h-2.25v5.75c0 .9648-.7852 1.75-1.75 1.75h-4c-.9648 0-1.75-.7852-1.75-1.75v-5.75h-2.25c-1.5166 0-2.75 1.2334-2.75 2.75v11c0 1.5166 1.2334 2.75 2.75 2.75h12c1.5166 0 2.75-1.2334 2.75-2.75v-11c0-1.5166-1.2334-2.75-2.75-2.75z"/></g><g><path d="m39.75 32.25h4c.1377 0 .25-.1123.25-.25v-5.75h-4.5v5.75c0 .1377.1123.25.25.25z"/><path d="m47.75 26.25h-2.25v5.75c0 .9648-.7852 1.75-1.75 1.75h-4c-.9648 0-1.75-.7852-1.75-1.75v-5.75h-2.25c-1.5166 0-2.75 1.2334-2.75 2.75v11c0 1.5166 1.2334 2.75 2.75 2.75h12c1.5166 0 2.75-1.2334 2.75-2.75v-11c0-1.5166-1.2334-2.75-2.75-2.75z"/></g></g></svg>