<svg id="Capa_1" enable-background="new 0 0 512 512" height="512" viewBox="0 0 512 512" width="512" xmlns="http://www.w3.org/2000/svg"><g><g><g><path d="m398.388 238.147v34.922l.886.125c21.461 3.028 41.185 13.721 55.54 30.109 14.49 16.544 22.471 37.781 22.471 59.8 0 50.073-40.738 90.811-90.812 90.811-20.63 0-40.074-6.744-56.231-19.503l-.281-.222h-46.885c22.66 32.857 60.554 54.439 103.398 54.439 69.216.001 125.526-56.31 125.526-125.525 0-65.196-49.964-118.935-113.612-124.956z" fill="#26a6fe"/></g></g><g><g><g><path d="m398.388 238.147v11.986c22.913 11.131 41.955 29.025 54.508 51.077.645.692 1.294 1.381 1.919 2.094 14.49 16.544 22.471 37.781 22.471 59.8 0 23.851-9.248 45.58-24.34 61.802-18.228 32.088-50.183 55.399-87.824 61.892 6.943 1.195 14.074 1.832 21.353 1.832 69.215-.001 125.525-56.312 125.525-125.527 0-65.197-49.964-118.935-113.612-124.956z" fill="#0593fc"/></g></g></g><g><g><g><path d="m295.663 363.103c0-50.073 40.737-90.811 90.811-90.811 4.395 0 8.715.32 12.944.927v-150.92h-399.418v297.469c0 8.534 6.918 15.453 15.453 15.453h315.901c-21.681-16.612-35.691-42.757-35.691-72.118z" fill="#f9f3f1"/></g></g><g><g><g><path d="m356.666 122.299v155.024c9.342-3.256 19.371-5.031 29.808-5.031 4.395 0 8.715.32 12.944.927v-150.92z" fill="#f3eae6"/></g></g></g><g><g><g><path d="m97.38 217.02h-43.13c-1.707 0-3.091-1.384-3.091-3.091v-43.13c0-1.707 1.384-3.091 3.091-3.091h43.13c1.707 0 3.091 1.384 3.091 3.091v43.13c0 1.707-1.384 3.091-3.091 3.091z" fill="#a6e7f0"/></g></g><g><g><path d="m179.976 217.02h-43.13c-1.707 0-3.091-1.384-3.091-3.091v-43.13c0-1.707 1.384-3.091 3.091-3.091h43.13c1.707 0 3.091 1.384 3.091 3.091v43.13c0 1.707-1.384 3.091-3.091 3.091z" fill="#a6e7f0"/></g></g><g><g><path d="m179.976 167.709h-20.951c1.707 0 3.091 1.384 3.091 3.091v43.13c0 1.707-1.384 3.091-3.091 3.091h20.951c1.707 0 3.091-1.384 3.091-3.091v-43.13c0-1.708-1.384-3.091-3.091-3.091z" fill="#6bd9e7"/></g></g><g><g><path d="m262.572 217.02h-43.13c-1.707 0-3.091-1.384-3.091-3.091v-43.13c0-1.707 1.384-3.091 3.091-3.091h43.13c1.707 0 3.091 1.384 3.091 3.091v43.13c0 1.707-1.384 3.091-3.091 3.091z" fill="#a6e7f0"/></g></g><g><g><path d="m262.572 167.709h-21.132c1.707 0 3.091 1.384 3.091 3.091v43.13c0 1.707-1.384 3.091-3.091 3.091h21.132c1.707 0 3.091-1.384 3.091-3.091v-43.13c-.001-1.708-1.384-3.091-3.091-3.091z" fill="#6bd9e7"/></g></g><g><g><path d="m345.168 217.02h-43.13c-1.707 0-3.091-1.384-3.091-3.091v-43.13c0-1.707 1.384-3.091 3.091-3.091h43.13c1.707 0 3.091 1.384 3.091 3.091v43.13c-.001 1.707-1.384 3.091-3.091 3.091z" fill="#fe7d43"/></g></g><g><g><path d="m345.168 167.709h-21.314c1.707 0 3.091 1.384 3.091 3.091v43.13c0 1.707-1.384 3.091-3.091 3.091h21.314c1.707 0 3.091-1.384 3.091-3.091v-43.13c-.001-1.708-1.384-3.091-3.091-3.091z" fill="#fd6930"/></g></g></g><g><g><path d="m97.38 302.081h-43.13c-1.707 0-3.091-1.384-3.091-3.091v-43.13c0-1.707 1.384-3.091 3.091-3.091h43.13c1.707 0 3.091 1.384 3.091 3.091v43.13c0 1.707-1.384 3.091-3.091 3.091z" fill="#a6e7f0"/></g></g><g><g><path d="m179.976 302.081h-43.13c-1.707 0-3.091-1.384-3.091-3.091v-43.13c0-1.707 1.384-3.091 3.091-3.091h43.13c1.707 0 3.091 1.384 3.091 3.091v43.13c0 1.707-1.384 3.091-3.091 3.091z" fill="#a6e7f0"/></g></g><g><g><path d="m179.976 252.77h-20.951c1.707 0 3.091 1.384 3.091 3.091v43.13c0 1.707-1.384 3.091-3.091 3.091h20.951c1.707 0 3.091-1.384 3.091-3.091v-43.13c0-1.707-1.384-3.091-3.091-3.091z" fill="#6bd9e7"/></g></g><g><g><path d="m97.38 167.709h-20.951c1.707 0 3.091 1.384 3.091 3.091v43.13c0 1.707-1.384 3.091-3.091 3.091h20.951c1.707 0 3.091-1.384 3.091-3.091v-43.13c0-1.708-1.384-3.091-3.091-3.091z" fill="#6bd9e7"/></g></g><g><g><path d="m97.38 252.77h-20.951c1.707 0 3.091 1.384 3.091 3.091v43.13c0 1.707-1.384 3.091-3.091 3.091h20.951c1.707 0 3.091-1.384 3.091-3.091v-43.13c0-1.707-1.384-3.091-3.091-3.091z" fill="#6bd9e7"/></g></g><g><g><path d="m262.572 302.081h-43.13c-1.707 0-3.091-1.384-3.091-3.091v-43.13c0-1.707 1.384-3.091 3.091-3.091h43.13c1.707 0 3.091 1.384 3.091 3.091v43.13c0 1.707-1.384 3.091-3.091 3.091z" fill="#a6e7f0"/></g></g><g><g><path d="m262.572 252.77h-21.132c1.707 0 3.091 1.384 3.091 3.091v43.13c0 1.707-1.384 3.091-3.091 3.091h21.132c1.707 0 3.091-1.384 3.091-3.091v-43.13c-.001-1.707-1.384-3.091-3.091-3.091z" fill="#6bd9e7"/></g></g><g><g><path d="m302.038 302.081h17.239c8.098-8.909 17.942-16.202 28.981-21.344v-24.876c0-1.707-1.384-3.091-3.091-3.091h-43.13c-1.707 0-3.091 1.384-3.091 3.091v43.13c.001 1.706 1.385 3.09 3.092 3.09z" fill="#fe7d43"/></g></g><g><g><g><path d="m345.168 252.77h-21.314c1.707 0 3.091 1.384 3.091 3.091v38.755c6.391-5.56 13.548-10.261 21.314-13.878v-24.876c-.001-1.708-1.384-3.092-3.091-3.092z" fill="#fd6930"/></g></g></g><g><g><g><path d="m179.976 387.142h-43.13c-1.707 0-3.091-1.384-3.091-3.091v-43.13c0-1.707 1.384-3.091 3.091-3.091h43.13c1.707 0 3.091 1.384 3.091 3.091v43.13c0 1.708-1.384 3.091-3.091 3.091z" fill="#a6e7f0"/></g></g><g><g><path d="m179.976 337.831h-20.951c1.707 0 3.091 1.384 3.091 3.091v43.13c0 1.707-1.384 3.091-3.091 3.091h20.951c1.707 0 3.091-1.384 3.091-3.091v-43.13c0-1.707-1.384-3.091-3.091-3.091z" fill="#6bd9e7"/></g></g><g><g><path d="m262.572 387.142h-43.13c-1.707 0-3.091-1.384-3.091-3.091v-43.13c0-1.707 1.384-3.091 3.091-3.091h43.13c1.707 0 3.091 1.384 3.091 3.091v43.13c0 1.708-1.384 3.091-3.091 3.091z" fill="#a6e7f0"/></g></g><g><g><path d="m262.572 337.831h-21.132c1.707 0 3.091 1.384 3.091 3.091v43.13c0 1.707-1.384 3.091-3.091 3.091h21.132c1.707 0 3.091-1.384 3.091-3.091v-43.13c-.001-1.707-1.384-3.091-3.091-3.091z" fill="#6bd9e7"/></g></g></g><g><g><g><circle cx="386.474" cy="363.103" fill="#fff" r="91.842"/></g></g><g><g><path d="m386.474 271.262c-5.537 0-10.959.49-16.226 1.429 42.984 7.662 75.616 45.226 75.616 90.412s-32.632 82.75-75.616 90.412c5.267.939 10.689 1.429 16.226 1.429 50.723 0 91.842-41.119 91.842-91.842s-41.119-91.84-91.842-91.84z" fill="#f9f3f1"/></g></g><g><g><path d="m429.005 370.603h-42.53c-4.143 0-7.5-3.358-7.5-7.5v-56.091c0-4.142 3.357-7.5 7.5-7.5s7.5 3.358 7.5 7.5v48.591h35.03c4.143 0 7.5 3.358 7.5 7.5s-3.358 7.5-7.5 7.5z" fill="#685e68"/></g></g></g><g><g><path d="m399.418 123.329h-399.418v-58.514c0-8.534 6.918-15.453 15.453-15.453h368.513c8.534 0 15.453 6.918 15.453 15.453v58.514z" fill="#fe7d43"/></g></g><path d="m383.966 49.363h-28.208v10.275c.577 1.621.908 3.359.908 5.178v58.514h42.752v-58.515c0-8.534-6.918-15.452-15.452-15.452z" fill="#fd6930"/><g><g><g><path d="m51.16 81.518c-4.143 0-7.5-3.358-7.5-7.5v-43.147c0-4.142 3.357-7.5 7.5-7.5s7.5 3.358 7.5 7.5v43.147c0 4.142-3.357 7.5-7.5 7.5z" fill="#6bd9e7"/></g></g><g><g><path d="m348.258 81.518c-4.143 0-7.5-3.358-7.5-7.5v-43.147c0-4.142 3.357-7.5 7.5-7.5s7.5 3.358 7.5 7.5v43.147c0 4.142-3.358 7.5-7.5 7.5z" fill="#6bd9e7"/></g></g></g><g><g><path d="m73.378 394.642c-2.232 0-4.362-.997-5.793-2.738l-22.219-27.034c-2.63-3.2-2.168-7.926 1.032-10.556 3.198-2.631 7.927-2.168 10.556 1.032l15.417 18.758 22.905-38.768c2.107-3.566 6.705-4.749 10.272-2.642 3.565 2.107 4.749 6.706 2.642 10.272l-28.354 47.991c-1.245 2.107-3.439 3.474-5.879 3.663-.193.015-.387.022-.579.022z" fill="#0ed290"/></g></g></g><g><g><path d="m386.475 462.445c-54.777 0-99.342-44.564-99.342-99.342 0-54.777 44.564-99.341 99.342-99.341 54.776 0 99.341 44.564 99.341 99.341-.001 54.777-44.565 99.342-99.341 99.342zm0-183.683c-46.506 0-84.342 37.835-84.342 84.341s37.836 84.342 84.342 84.342 84.341-37.835 84.341-84.342c-.001-46.506-37.836-84.341-84.341-84.341z" fill="#8ac9fe"/></g></g><g><path d="m302.728 95.314h-206.037c-4.143 0-7.5-3.358-7.5-7.5s3.357-7.5 7.5-7.5h206.036c4.143 0 7.5 3.358 7.5 7.5s-3.357 7.5-7.499 7.5z" fill="#fff"/></g></g></svg>