<svg id="_x33_0" enable-background="new 0 0 62 62" height="512" viewBox="0 0 62 62" width="512" xmlns="http://www.w3.org/2000/svg"><g><g><g><path d="m35 6v2c0 .552-.448 1-1 1h-5-12-5c-.552 0-1-.448-1-1v-2c0-.552.448-1 1-1h22c.552 0 1 .448 1 1z" fill="#ff826e"/></g><g><path d="m21 9h4v4h-4z" fill="#ff826e"/></g><g><path d="m27 5h-8c0-2.21 1.79-4 4-4 1.1 0 2.1.45 2.83 1.17.72.73 1.17 1.73 1.17 2.83z" fill="#fc6e51"/></g><g><path d="m27 14v3h-8v-3c0-.55.45-1 1-1h1 4 1c.55 0 1 .45 1 1z" fill="#fc6e51"/></g><g><path d="m39 29v4h-10v-2c0-2.21-1.79-4-4-4h-18v-10h12 8c6.63 0 12 5.37 12 12z" fill="#ccd1d9"/></g><g><path d="m41 34v2c0 .55-.45 1-1 1h-1-6-4-1c-.55 0-1-.45-1-1v-2c0-.55.45-1 1-1h1 10 1c.55 0 1 .45 1 1z" fill="#aab2bd"/></g><g><path d="m7 27v3c0 .55-.45 1-1 1h-4c-.55 0-1-.45-1-1v-16c0-.55.45-1 1-1h4c.55 0 1 .45 1 1v3z" fill="#aab2bd"/></g><g><circle cx="53" cy="9" fill="#4fc1e9" r="8"/></g><g><circle cx="53" cy="39" fill="#4fc1e9" r="6"/></g><g><circle cx="45" cy="27" fill="#4fc1e9" r="2"/></g><g><circle cx="41" cy="15" fill="#4fc1e9" r="2"/></g><g><circle cx="17" cy="33" fill="#4fc1e9" r="2"/></g><g><circle cx="20" cy="43" fill="#4fc1e9" r="2"/></g><g><circle cx="7" cy="41" fill="#4fc1e9" r="6"/></g><g><path d="m43 49-1-3-3-9h-6-4l-3 9-2 4.2.82.33c.78.31 1.61.47 2.45.47 1.75 0 3.42-.69 4.66-1.93l.07-.07s1.48-1 3-1c.83 0 1.94.89 2.78 1.7.79.76 1.97.93 2.95.44.75-.38 1.53-.66 2.34-.85z" fill="#69d6f4"/></g><g><path d="m21 61h-10c-1.1 0-2.1-.45-2.83-1.17-.72-.73-1.17-1.73-1.17-2.83s.45-2.1 1.17-2.83c.73-.72 1.73-1.17 2.83-1.17 1.06 0 2.1.21 3.06.58l.42.18c1.08.5 2.05 1.23 2.84 2.15-.2.32-.32.69-.32 1.09 0 2.21 1.79 4 4 4z" fill="#69d6f4"/></g><g><path d="m21 61c-2.21 0-4-1.79-4-4 0-.4.12-.77.32-1.09-.79-.92-1.76-1.65-2.84-2.15-.14-.06-.28-.12-.42-.18l.01-.03 1.93-2.55.55-.55c.93-.93 2.19-1.45 3.5-1.45.63 0 1.25.12 1.83.35l2.12.85.82.33c.78.31 1.61.47 2.45.47 1.75 0 3.42-.69 4.66-1.93l.07-.07s1.48-1 3-1c.83 0 1.94.89 2.78 1.7.79.76 1.97.93 2.95.44.75-.38 1.53-.66 2.34-.85s1.63-.29 2.47-.29c1.43 0 2.83.28 4.12.82 1.29.53 2.48 1.32 3.49 2.33l.57.57c.13-.2.28-.38.45-.55.73-.72 1.73-1.17 2.83-1.17s2.1.45 2.83 1.17c.72.73 1.17 1.73 1.17 2.83 0 2.21-1.79 4-4 4h-14c-.55 0-1.05-.22-1.41-.59-.23-.23-.4-.5-.5-.82l-.31.12c.14.4.22.84.22 1.29 0 .55-.22 1.05-.59 1.41-.36.37-.86.59-1.41.59z" fill="#4fc1e9"/></g></g><g><path d="m2 32h4c1.103 0 2-.897 2-2v-2h17c1.654 0 3 1.346 3 3v1c-1.103 0-2 .897-2 2v2c0 .974.701 1.786 1.625 1.962l-2.574 7.721 1.897.633 2.773-8.316h2.279v7c0 1.654 1.346 3 3 3s3-1.346 3-3v-3h-2v3c0 .552-.449 1-1 1s-1-.448-1-1v-7h4.279l2.772 8.316 1.897-.633-2.574-7.721c.925-.176 1.626-.988 1.626-1.962v-2c0-1.103-.897-2-2-2v-3c0-6.831-5.299-12.436-12-12.949v-2.051c0-1.103-.897-2-2-2v-2h8c1.103 0 2-.897 2-2v-2c0-1.103-.897-2-2-2h-6.101c-.465-2.279-2.485-4-4.899-4s-4.434 1.721-4.899 4h-6.101c-1.103 0-2 .897-2 2v2c0 1.103.897 2 2 2h8v2c-1.103 0-2 .897-2 2v2h-10v-2c0-1.103-.897-2-2-2h-4c-1.103 0-2 .897-2 2v16c0 1.103.897 2 2 2zm38.001 4h-12.001v-2h12zm-14.001-30v2h-6v-2zm8.001 2h-6.001v-2h6zm-11.001-6c1.302 0 2.402.839 2.816 2h-5.631c.413-1.161 1.513-2 2.815-2zm-11 4h6v2h-6zm10 4h2v2h-2zm-2 4h6v2h-6zm7 4c6.065 0 11 4.935 11 11v3h-8v-1c0-2.757-2.243-5-5-5h-17v-8zm-25-4h4l.001 16h-4.001z"/><path d="m17.259 51.155c1.099-1.102 2.805-1.454 4.253-.873l2.938 1.175c.901.36 1.85.543 2.82.543 2.028 0 3.935-.79 5.368-2.224l.069-.069-1.483-1.345c-1.561 1.561-3.979 2.059-6.031 1.237l-2.938-1.175c-2.183-.874-4.752-.343-6.41 1.316l-.552.552 1.414 1.414z"/><path d="m57 50c-1.277 0-2.431.496-3.316 1.286-2.201-2.116-5.08-3.286-8.143-3.286-1.818 0-3.638.43-5.261 1.242l-1.727.863.895 1.789 1.728-.863c1.346-.675 2.856-1.031 4.365-1.031 2.609 0 5.061 1.016 6.905 2.86l.035.035c-.301.642-.481 1.351-.481 2.105v1h2v-1c0-1.654 1.346-3 3-3s3 1.346 3 3-1.346 3-3 3h-14c-.551 0-1-.448-1-1s.449-1 1-1h1v-2h-1c-1.069 0-2.003.566-2.534 1.41-.9-.869-2.119-1.41-3.466-1.41h-7v2h7c1.654 0 3 1.346 3 3 0 .552-.449 1-1 1h-18c-1.654 0-3-1.346-3-3 0-.552.449-1 1-1s1 .448 1 1v1h2v-1c0-1.654-1.346-3-3-3-.61 0-1.176.185-1.65.499-1.716-1.598-3.977-2.499-6.35-2.499-2.757 0-5 2.243-5 5s2.243 5 5 5c1.654 0 3-1.346 3-3s-1.346-3-3-3h-1v2h1c.551 0 1 .448 1 1s-.449 1-1 1c-1.654 0-3-1.346-3-3s1.346-3 3-3c1.94 0 3.78.771 5.146 2.124-.086.279-.146.569-.146.876 0 2.757 2.243 5 5 5h18c1.383 0 2.539-.945 2.884-2.22.346.139.721.22 1.116.22h14c2.757 0 5-2.243 5-5s-2.243-5-5-5z"/><path d="m14 41c0-3.859-3.14-7-7-7s-7 3.141-7 7 3.14 7 7 7 7-3.141 7-7zm-12 0c0-2.757 2.243-5 5-5s5 2.243 5 5-2.243 5-5 5-5-2.243-5-5z"/><path d="m53 46c3.86 0 7-3.141 7-7s-3.14-7-7-7-7 3.141-7 7 3.14 7 7 7zm0-12c2.757 0 5 2.243 5 5s-2.243 5-5 5-5-2.243-5-5 2.243-5 5-5z"/><path d="m17 30c-1.654 0-3 1.346-3 3s1.346 3 3 3 3-1.346 3-3-1.346-3-3-3zm0 4c-.551 0-1-.448-1-1s.449-1 1-1 1 .448 1 1-.449 1-1 1z"/><path d="m17 43c0 1.654 1.346 3 3 3s3-1.346 3-3-1.346-3-3-3-3 1.346-3 3zm3-1c.551 0 1 .448 1 1s-.449 1-1 1-1-.448-1-1 .449-1 1-1z"/><path d="m45 24c-1.654 0-3 1.346-3 3s1.346 3 3 3 3-1.346 3-3-1.346-3-3-3zm0 4c-.551 0-1-.449-1-1s.449-1 1-1 1 .449 1 1-.449 1-1 1z"/><path d="m41 18c1.654 0 3-1.346 3-3s-1.346-3-3-3-3 1.346-3 3 1.346 3 3 3zm0-4c.551 0 1 .449 1 1s-.449 1-1 1-1-.449-1-1 .449-1 1-1z"/><path d="m53 18c4.962 0 9-4.038 9-9s-4.038-9-9-9-9 4.038-9 9 4.038 9 9 9zm0-16c3.86 0 7 3.14 7 7s-3.14 7-7 7-7-3.14-7-7 3.14-7 7-7z"/></g></g></svg>