<svg id="Capa_1" enable-background="new 0 0 512 512" height="512" viewBox="0 0 512 512" width="512" xmlns="http://www.w3.org/2000/svg"><g><g><g><path d="m176.909 57.136v161.673h9.622c4.703 0 8.529 3.826 8.529 8.528v19.043c0 4.462 2.82 8.465 7.018 9.961 3.588 1.277 7.139 2.745 10.555 4.361 1.424.673 2.943 1.014 4.515 1.014 2.826 0 5.483-1.101 7.481-3.1l13.457-13.457c1.611-1.611 3.753-2.498 6.03-2.498 2.278 0 4.419.887 6.031 2.498l32.871 32.87c1.611 1.611 2.498 3.753 2.498 6.03 0 2.279-.887 4.421-2.498 6.031l-13.457 13.457c-3.15 3.151-3.988 7.972-2.084 11.996 1.616 3.417 3.083 6.969 4.361 10.556 1.494 4.197 5.496 7.017 9.96 7.017h19.043c4.703 0 8.529 3.826 8.529 8.528v46.487c0 4.702-3.826 8.528-8.529 8.528h-19.043c-4.463 0-8.466 2.82-9.96 7.018-1.278 3.586-2.745 7.138-4.361 10.555-1.904 4.024-1.066 8.845 2.084 11.996l13.457 13.457c.984.984 1.694 2.167 2.101 3.458h200.402c5.69 0 10.302-4.612 10.302-10.302v-375.705z" fill="#f9f3f1"/></g><g><path d="m452.765 57.136v375.707c0 5.69-4.612 10.302-10.302 10.302h43.058c5.69 0 10.302-4.612 10.302-10.302v-375.707z" fill="#f3eae6"/></g><g><path d="m495.822 58.136h-318.913v-47.834c0-5.69 4.612-10.302 10.302-10.302h298.31c5.69 0 10.302 4.612 10.302 10.302v47.834z" fill="#26a6fe"/></g><g><path d="m485.521 0h-43.058c5.69 0 10.302 4.612 10.302 10.302v47.834h43.058v-47.834c-.001-5.69-4.613-10.302-10.302-10.302z" fill="#0593fc"/></g><g><path d="m187.211 0c-5.69 0-10.302 4.612-10.302 10.302v47.834h81.792v-58.136z" fill="#60b7ff"/></g><g><g><g><path d="m238.087 245.16c1.611-1.611 3.753-2.498 6.03-2.498 2.278 0 4.42.887 6.031 2.498l8.554 8.554v-86.474c0-1.707-1.384-3.091-3.091-3.091h-24.885c-1.707 0-3.091 1.384-3.091 3.091v88.372z" fill="#ffd15b"/></g><g><g><path d="m255.611 164.149h-13.965c1.707 0 3.091 1.384 3.091 3.091v75.453c2.044.146 3.948 1.004 5.412 2.468l8.554 8.554v-86.474c-.002-1.709-1.386-3.092-3.092-3.092z" fill="#ffc344"/></g></g><path d="m320.833 257.6v-152.493c0-1.707-1.384-3.091-3.091-3.091h-24.885c-1.707 0-3.091 1.384-3.091 3.091v152.493z" fill="#05e39c"/><path d="m306.867 105.107v152.493h13.965v-152.493c0-1.707-1.384-3.091-3.091-3.091h-13.965c1.708.001 3.091 1.385 3.091 3.091z" fill="#0ed290"/><path d="m382.964 257.6v-93.062c0-1.707-1.384-3.091-3.091-3.091h-24.885c-1.707 0-3.091 1.384-3.091 3.091v93.062z" fill="#ffd15b"/><path d="m368.999 164.538v93.062h13.965v-93.062c0-1.707-1.384-3.091-3.091-3.091h-13.965c1.707 0 3.091 1.384 3.091 3.091z" fill="#ffc344"/><path d="m445.096 257.6v-51.19c0-1.707-1.384-3.091-3.091-3.091h-24.885c-1.707 0-3.091 1.384-3.091 3.091v51.19z" fill="#fd8087"/><path d="m431.131 206.409v51.19h13.965v-51.19c0-1.707-1.384-3.091-3.091-3.091h-13.965c1.707.001 3.091 1.384 3.091 3.091z" fill="#fe646f"/></g><g><g><path d="m445.096 109.517h-93.198c-4.142 0-7.5-3.357-7.5-7.5s3.358-7.5 7.5-7.5h93.198c4.142 0 7.5 3.357 7.5 7.5s-3.358 7.5-7.5 7.5z" fill="#bfbfbf"/></g><g><path d="m445.096 139.232h-93.198c-4.142 0-7.5-3.357-7.5-7.5s3.358-7.5 7.5-7.5h93.198c4.142 0 7.5 3.357 7.5 7.5s-3.358 7.5-7.5 7.5z" fill="#bfbfbf"/></g><g><path d="m445.096 168.947h-31.066c-4.142 0-7.5-3.357-7.5-7.5s3.358-7.5 7.5-7.5h31.066c4.142 0 7.5 3.357 7.5 7.5s-3.358 7.5-7.5 7.5z" fill="#bfbfbf"/></g></g><path d="m461.979 256.6h-200.348l15 15h185.349c4.142 0 7.5-3.357 7.5-7.5s-3.358-7.5-7.501-7.5z" fill="#bfbfbf"/><g><path d="m461.979 304.601h-116.353c-4.142 0-7.5-3.357-7.5-7.5s3.358-7.5 7.5-7.5h116.354c4.142 0 7.5 3.357 7.5 7.5s-3.358 7.5-7.501 7.5z" fill="#9c9c9c"/></g><g><path d="m405.376 337.603h-59.75c-4.142 0-7.5-3.357-7.5-7.5s3.358-7.5 7.5-7.5h59.75c4.142 0 7.5 3.357 7.5 7.5s-3.357 7.5-7.5 7.5z" fill="#9c9c9c"/></g><g><path d="m461.979 337.603h-33.939c-4.142 0-7.5-3.357-7.5-7.5s3.358-7.5 7.5-7.5h33.939c4.142 0 7.5 3.357 7.5 7.5s-3.357 7.5-7.5 7.5z" fill="#9c9c9c"/></g><g><path d="m461.979 370.604h-116.353c-4.142 0-7.5-3.357-7.5-7.5s3.358-7.5 7.5-7.5h116.354c4.142 0 7.5 3.357 7.5 7.5s-3.358 7.5-7.501 7.5z" fill="#9c9c9c"/></g><g><path d="m461.979 403.604h-116.353c-4.142 0-7.5-3.357-7.5-7.5s3.358-7.5 7.5-7.5h116.354c4.142 0 7.5 3.357 7.5 7.5s-3.358 7.5-7.501 7.5z" fill="#9c9c9c"/></g></g></g><g><g><path d="m104.792 53.437h-70.007c-2.845 0-5.151 2.306-5.151 5.151v121.273c0 2.845 2.306 5.151 5.151 5.151h90.62c2.845 0 5.151-2.306 5.151-5.151v-100.66c0-1.366-.543-2.676-1.509-3.642l-20.613-20.613c-.965-.966-2.275-1.509-3.642-1.509z" fill="#ffd15b"/></g><g><path d="m129.047 75.559-20.612-20.612c-.966-.966-2.276-1.509-3.642-1.509h-32.174c1.366 0 2.676.543 3.642 1.509l20.612 20.612c.966.966 1.509 2.276 1.509 3.642v100.661c0 2.845-2.306 5.151-5.151 5.151h32.174c2.845 0 5.151-2.306 5.151-5.151v-100.661c0-1.366-.543-2.676-1.509-3.642z" fill="#ffc344"/></g><g><path d="m101.647 102.814h-43.105c-4.142 0-7.5-3.357-7.5-7.5s3.358-7.5 7.5-7.5h43.105c4.142 0 7.5 3.357 7.5 7.5s-3.357 7.5-7.5 7.5z" fill="#eca026"/></g><g><path d="m101.647 129.138h-43.105c-4.142 0-7.5-3.357-7.5-7.5s3.358-7.5 7.5-7.5h43.105c4.142 0 7.5 3.357 7.5 7.5s-3.357 7.5-7.5 7.5z" fill="#eca026"/></g><g><path d="m79.166 155.461h-20.624c-4.142 0-7.5-3.357-7.5-7.5s3.358-7.5 7.5-7.5h20.625c4.142 0 7.5 3.357 7.5 7.5s-3.358 7.5-7.501 7.5z" fill="#eca026"/></g></g><g><g><path d="m310.399 388.132v-46.486c0-5.279-4.28-9.559-9.559-9.559h-19.043c-4.034 0-7.636-2.533-8.99-6.333-1.295-3.637-2.764-7.191-4.4-10.651-1.724-3.644-.969-7.976 1.882-10.827l13.457-13.457c3.733-3.733 3.733-9.785 0-13.518l-32.871-32.871c-3.733-3.733-9.785-3.733-13.518 0l-13.457 13.457c-2.851 2.851-7.183 3.606-10.827 1.882-3.46-1.637-7.014-3.105-10.651-4.4-3.8-1.353-6.333-4.955-6.333-8.99v-19.043c0-5.279-4.28-9.559-9.559-9.559h-46.486c-5.279 0-9.559 4.28-9.559 9.559v19.043c0 4.034-2.533 7.636-6.333 8.99-3.637 1.295-7.191 2.764-10.651 4.4-3.644 1.724-7.976.969-10.827-1.882l-13.457-13.457c-3.733-3.733-9.785-3.733-13.518 0l-32.869 32.872c-3.733 3.733-3.733 9.785 0 13.518l13.457 13.457c2.851 2.851 3.606 7.183 1.882 10.827-1.637 3.46-3.105 7.014-4.4 10.651-1.353 3.8-4.955 6.333-8.99 6.333h-19.043c-5.279 0-9.559 4.28-9.559 9.559v46.486c0 5.279 4.28 9.559 9.559 9.559h19.043c4.034 0 7.636 2.533 8.99 6.333 1.295 3.637 2.764 7.191 4.4 10.651 1.724 3.644.969 7.976-1.882 10.827l-13.457 13.456c-3.733 3.733-3.733 9.785 0 13.518l32.871 32.871c3.733 3.733 9.785 3.733 13.518 0l13.457-13.457c2.851-2.851 7.183-3.606 10.827-1.882 3.46 1.637 7.014 3.105 10.651 4.4 3.8 1.353 6.333 4.955 6.333 8.99v19.043c0 5.279 4.28 9.559 9.559 9.559h46.486c5.279 0 9.559-4.28 9.559-9.559v-19.043c0-4.034 2.533-7.636 6.333-8.99 3.637-1.295 7.191-2.764 10.651-4.4 3.644-1.724 7.976-.969 10.827 1.882l13.457 13.457c3.733 3.733 9.785 3.733 13.518 0l32.871-32.871c3.733-3.733 3.733-9.785 0-13.518l-13.457-13.457c-2.851-2.851-3.606-7.183-1.882-10.827 1.637-3.46 3.105-7.014 4.4-10.651 1.353-3.8 4.955-6.333 8.99-6.333h19.043c5.277 0 9.557-4.279 9.557-9.559z" fill="#acacac"/></g><g><path d="m300.84 332.088h-19.043c-4.034 0-7.636-2.533-8.99-6.333-1.295-3.637-2.764-7.191-4.4-10.651-1.724-3.644-.969-7.976 1.882-10.827l13.457-13.457c3.733-3.733 3.733-9.785 0-13.518l-32.871-32.871c-3.733-3.733-9.785-3.733-13.518 0l-13.457 13.457c-2.851 2.851-7.183 3.606-10.827 1.882-3.46-1.637-7.014-3.105-10.651-4.4-3.8-1.353-6.333-4.955-6.333-8.99v-19.043c0-5.279-4.28-9.559-9.559-9.559h-46.486c-4.357 0-8.026 2.918-9.177 6.905 59.419 18.903 102.468 74.524 102.468 140.206s-43.049 121.303-102.468 140.206c1.151 3.987 4.82 6.905 9.177 6.905h46.486c5.279 0 9.559-4.28 9.559-9.559v-19.043c0-4.034 2.533-7.636 6.333-8.99 3.637-1.295 7.191-2.764 10.651-4.4 3.644-1.724 7.976-.969 10.827 1.882l13.457 13.457c3.733 3.733 9.785 3.733 13.518 0l32.871-32.871c3.733-3.733 3.733-9.785 0-13.518l-13.457-13.457c-2.851-2.851-3.606-7.183-1.882-10.827 1.636-3.459 3.105-7.014 4.4-10.651 1.353-3.8 4.955-6.333 8.99-6.333h19.043c5.279 0 9.559-4.28 9.559-9.559v-46.486c0-5.278-4.28-9.557-9.559-9.557z" fill="#9c9c9c"/></g><g><path d="m131.369 431.646-34.837-34.837c-1.932-1.932-3.017-4.552-3.017-7.284v-49.269c0-2.732 1.085-5.352 3.017-7.284l34.837-34.838c1.932-1.932 4.552-3.017 7.285-3.017h49.269c2.732 0 5.353 1.085 7.284 3.017l34.838 34.838c1.932 1.932 3.017 4.552 3.017 7.284v49.269c0 2.732-1.085 5.353-3.017 7.285l-34.838 34.837c-1.932 1.932-4.552 3.017-7.284 3.017h-49.268c-2.733-.001-5.354-1.086-7.286-3.018z" fill="#bfbfbf"/></g><g><path d="m145.328 403.098-20.248-20.248c-.966-.966-1.509-2.276-1.509-3.642v-28.637c0-1.366.543-2.676 1.509-3.642l20.248-20.248c.966-.966 2.276-1.509 3.642-1.509h28.636c1.366 0 2.676.543 3.642 1.509l20.249 20.248c.966.966 1.509 2.276 1.509 3.642v28.636c0 1.366-.543 2.676-1.509 3.642l-20.249 20.248c-.966.966-2.276 1.509-3.642 1.509h-28.636c-1.366.001-2.676-.542-3.642-1.508z" fill="#838383"/></g><g><path d="m201.497 346.929-20.249-20.248c-.966-.966-2.276-1.509-3.642-1.509h-28.636c-.651 0-1.287.131-1.882.365.653.257 1.255.638 1.76 1.144l20.249 20.248c.966.966 1.509 2.276 1.509 3.642v28.636c0 1.366-.543 2.676-1.509 3.642l-20.249 20.248c-.505.505-1.108.887-1.76 1.144.595.234 1.23.365 1.882.365h28.636c1.366 0 2.676-.543 3.642-1.509l20.249-20.248c.966-.966 1.509-2.276 1.509-3.642v-28.636c0-1.366-.543-2.676-1.509-3.642z" fill="#5a5a5a"/></g></g><g><path d="m255.611 133.408h-39.272c-1.707 0-3.091-1.384-3.091-3.091v-25.21c0-1.707 1.384-3.091 3.091-3.091h39.272c1.707 0 3.091 1.384 3.091 3.091v25.21c-.001 1.708-1.385 3.091-3.091 3.091z" fill="#bfbfbf"/></g><g><path d="m255.611 102.017h-21.244c1.707 0 3.091 1.384 3.091 3.091v25.21c0 1.707-1.384 3.091-3.091 3.091h21.244c1.707 0 3.091-1.384 3.091-3.091v-25.21c-.001-1.707-1.385-3.091-3.091-3.091z" fill="#acacac"/></g></g></svg>