<svg enable-background="new 0 0 512 512" height="512" viewBox="0 0 512 512" width="512" xmlns="http://www.w3.org/2000/svg"><g id="_x31_3_Seo"><g><path d="m133.393 305.797h105.476v40.131h-105.476z" fill="#acbadf" transform="matrix(.707 -.707 .707 .707 -175.903 227.057)"/><path d="m454.94 302.082c-67.679 67.679-177.39 67.679-245.033.036-67.679-67.679-67.679-177.39 0-245.069 67.643-67.643 177.353-67.643 245.033.037 67.642 67.643 67.643 177.353 0 244.996z" fill="#f78721"/><path d="m454.925 302.072c-67.68 67.68-177.376 67.679-245.003.052-11.059-11.112-20.32-23.336-27.781-36.3 66.199 38.1 152.135 28.839 208.755-27.781 56.568-56.568 65.828-142.557 27.781-208.756 12.965 7.461 25.188 16.722 36.248 27.781 67.68 67.681 67.68 177.377 0 245.004z" opacity=".1"/><path d="m237.207 274.816c-52.511-52.511-52.511-137.953.002-190.466 52.491-52.49 137.916-52.474 190.427.037 52.491 52.491 52.493 137.901.002 190.392-52.513 52.513-137.94 52.528-190.431.037z" fill="#e8f1f8"/><path d="m427.62 274.767c-52.493 52.546-137.9 52.545-190.393.053-4.71-4.657-8.943-9.631-12.806-14.764 52.705 39.105 127.74 34.714 175.471-13.017 47.784-47.784 52.07-122.819 12.859-175.523 5.186 3.863 10.16 8.149 14.87 12.858 52.493 52.492 52.492 137.9-.001 190.393z" opacity=".1"/><path d="m67.15 499.479 133.775-133.775c8.266-8.266 8.266-21.668 0-29.934l-24.702-24.702c-8.266-8.266-21.668-8.266-29.934 0l-133.775 133.775c-8.266 8.266-8.266 21.668 0 29.934l24.702 24.702c8.266 8.266 21.668 8.266 29.934 0z" fill="#474747"/><path d="m418.063 401.04c0-13.108 7.82-24.429 18.992-29.493-2.16-8.417-5.511-16.312-9.682-23.834-11.469 4.32-25.024 1.936-34.334-7.299-9.235-9.31-11.618-22.863-7.373-34.333-7.448-4.171-15.342-7.522-23.758-9.757-5.064 11.172-16.236 19.066-29.418 19.066-13.108 0-24.428-7.895-29.493-19.066-8.415 2.382-16.385 5.586-23.832 9.757 4.319 11.692 1.936 25.023-7.374 34.333-9.235 9.235-22.715 11.619-34.334 7.299-4.096 7.522-7.448 15.417-9.682 23.834 11.172 5.138 18.917 16.385 18.917 29.493 0 13.033-7.745 24.278-18.917 29.418 2.383 8.415 5.66 16.385 9.682 23.683 11.618-4.171 25.099-1.787 34.334 7.448 9.31 9.31 11.693 22.79 7.374 34.409 7.448 4.022 15.417 7.299 23.832 9.681 5.139-11.172 16.385-18.917 29.493-18.917 12.959 0 24.354 7.746 29.418 18.917 8.416-2.233 16.31-5.586 23.758-9.681-4.245-11.544-1.862-25.1 7.373-34.409 9.31-9.235 22.864-11.619 34.334-7.448 4.171-7.299 7.299-15.268 9.682-23.683-11.172-5.064-18.992-16.235-18.992-29.418zm-85.648 31.67c-17.48 0-31.68-14.2-31.68-31.736 0-17.481 14.2-31.681 31.68-31.681 17.537 0 31.68 14.2 31.68 31.681 0 17.537-14.143 31.736-31.68 31.736z" fill="#0e9c4a"/><path d="m418.063 401.113c0-13.108 7.82-24.429 18.992-29.493-2.16-8.415-5.511-16.385-9.682-23.907-8.565 3.277-18.247 2.755-26.514-1.564-3.202 64.124-56.23 115.215-121.174 115.215-2.83 0-5.66-.075-8.49-.298.224.149.372.298.596.522 9.31 9.31 11.693 22.863 7.373 34.482 7.448 4.022 15.417 7.299 23.833 9.608 5.139-11.172 16.385-18.917 29.493-18.917 12.959 0 24.354 7.746 29.418 18.917 8.416-2.16 16.31-5.586 23.758-9.608-4.245-11.544-1.862-25.172 7.373-34.482 9.31-9.237 22.864-11.619 34.334-7.448 4.171-7.226 7.299-15.268 9.682-23.61-11.172-5.063-18.992-16.235-18.992-29.417z" opacity=".12"/><g><path d="m61.881 175.849-21.179-.003c-2.934 0-5.312-2.379-5.312-5.312s2.379-5.312 5.312-5.312l21.179.003c2.934 0 5.312 2.379 5.312 5.312s-2.378 5.312-5.312 5.312z" fill="#474747"/></g><g><path d="m49.931 204.62c-2.075-2.073-2.075-5.437 0-7.512l7.621-7.623c2.07-2.075 5.437-2.075 7.512 0 2.075 2.073 2.075 5.437 0 7.512l-7.621 7.623c-2.07 2.075-5.437 2.075-7.512 0z" fill="#474747"/></g><g><path d="m57.557 151.588-7.618-7.623c-2.073-2.075-2.073-5.439.003-7.515 2.075-2.07 5.439-2.073 7.515.003l7.618 7.623c2.073 2.075 2.073 5.439-.003 7.515-2.077 2.071-5.44 2.072-7.515-.003z" fill="#474747"/></g><path d="m207.124 170.51c0 35.488-28.745 64.233-64.233 64.233-35.437 0-64.182-28.745-64.182-64.233 0-35.437 28.745-64.183 64.182-64.183 35.488.001 64.233 28.746 64.233 64.183z" fill="#f14f4a"/><g><path d="m130.241 188.577-10.728-10.731c-2.075-2.075-2.075-5.439 0-7.512 2.075-2.075 5.437-2.075 7.512 0l6.972 6.975 24.813-24.813c2.075-2.075 5.437-2.075 7.512 0s2.075 5.437 0 7.512l-28.569 28.569c-2.072 2.071-5.434 2.078-7.512 0z" fill="#e8f1f8"/></g><g><path d="m435.133 184.896c-2.934 0-5.312-2.379-5.312-5.312 0-26.069-10.114-50.54-28.478-68.902-18.38-18.38-42.869-28.502-68.954-28.502-2.934 0-5.312-2.379-5.312-5.312s2.379-5.312 5.312-5.312c28.922 0 56.08 11.226 76.466 31.614 20.372 20.367 31.591 47.507 31.591 76.414-.001 2.933-2.379 5.312-5.313 5.312z" fill="#acbadf"/></g></g></g></svg>