<svg id="one_color" height="512" viewBox="0 0 64 64" width="512" xmlns="http://www.w3.org/2000/svg"><g fill="#38aaff"><path d="m55.01 37.86c-4.51 22.69-23.01 19.14-23.01 19.14v-29.25c.39 0 .78-.07 1.14-.23l2.23-.93.59 21.91c.02.93.68 1.71 1.58 1.91 3.31.73 10.91 1.59 12.46-5.41l-2-1z"/><path d="m46 17c2.21 0 4 1.79 4 4s-1.79 4-4 4c-1.28 0-2.41-.6-3.14-1.53-.54-.68-.86-1.54-.86-2.47 0-.56.12-1.1.33-1.58h.01c.6-1.43 2.01-2.42 3.66-2.42z"/><path d="m21.67 19.42c.21.48.33 1.02.33 1.58 0 .93-.32 1.79-.86 2.47-.73.93-1.86 1.53-3.14 1.53-2.21 0-4-1.79-4-4s1.79-4 4-4c1.65 0 3.06.99 3.66 2.42z"/><path d="m35.23 21.19v.01l-2.51.62c-.47.12-.97.12-1.44 0l-2.51-.62v-.01l.19-6.89c.92.45 1.95.7 3.04.7s2.12-.25 3.04-.7z"/></g><g><path d="m36 8c0-2.206-1.794-4-4-4s-4 1.794-4 4 1.794 4 4 4 4-1.794 4-4zm-6 0c0-1.103.897-2 2-2s2 .897 2 2-.897 2-2 2-2-.897-2-2z"/><path d="m16.992 44.127c.042-.33-.083-.66-.334-.88l-8-7c-.283-.247-.68-.315-1.029-.176-.35.14-.591.464-.625.838l-1 11c-.032.361.133.712.433.917.299.204.686.23 1.011.068l1.026-.513c1.504 3.493 7.167 14.329 19.321 13.634l3.758 1.879c.14.071.294.106.447.106s.307-.035.447-.105l3.758-1.879c.379.021.749.032 1.115.032 11.383-.002 16.749-10.282 18.206-13.667l1.026.514c.324.161.712.136 1.011-.068.3-.205.465-.556.433-.917l-1-11c-.034-.374-.275-.698-.625-.838-.349-.139-.746-.07-1.029.176l-8 7c-.251.22-.376.55-.334.88.043.331.247.618.545.768l1.269.634c-1.662 5.131-7.582 4.672-11.065 3.902-.457-.101-.784-.492-.796-.953l-.571-21.225 6.225-2.597c.891.826 2.075 1.343 3.385 1.343 2.757 0 5-2.243 5-5s-2.243-5-5-5c-1.865 0-3.476 1.039-4.336 2.557l-5.468 1.365-.139-5.039c2.355-1.394 3.943-3.953 3.943-6.883 0-4.411-3.589-8-8-8s-8 3.589-8 8c0 2.93 1.588 5.489 3.943 6.883l-.139 5.039-5.469-1.365c-.859-1.518-2.47-2.557-4.335-2.557-2.757 0-5 2.243-5 5s2.243 5 5 5c1.31 0 2.494-.517 3.386-1.344l6.225 2.597-.571 21.226c-.012.46-.339.852-.796.952-3.483.77-9.403 1.227-11.065-3.902l1.269-.634c.297-.15.501-.437.544-.768zm29.008-26.127c1.654 0 3 1.346 3 3s-1.346 3-3 3-3-1.346-3-3 1.346-3 3-3zm-20-10c0-3.309 2.691-6 6-6s6 2.691 6 6-2.691 6-6 6-6-2.691-6-6zm3.922 7.716c.664.18 1.358.284 2.078.284s1.414-.104 2.078-.284l.13 4.702-1.731.432c-.312.078-.642.077-.955-.001l-1.731-.432zm1.116 7.074c.314.079.639.118.962.118.324 0 .647-.039.962-.117l8.06-2.011c-.003.074-.022.145-.022.22 0 .707.152 1.378.417 1.988l-8.657 3.612c-.482.201-1.037.201-1.52 0l-8.658-3.611c.266-.611.418-1.282.418-1.989 0-.075-.019-.146-.022-.22zm-13.038 1.21c-1.654 0-3-1.346-3-3s1.346-3 3-3 3 1.346 3 3-1.346 3-3 3zm8.676 27.384c1.355-.3 2.327-1.473 2.364-2.852l.551-20.454.88.367c.485.203 1.008.305 1.529.305s1.044-.102 1.529-.305l.88-.367.551 20.453c.037 1.38 1.009 2.553 2.364 2.853 7.332 1.62 12.434-.688 13.652-6.167.1-.448-.119-.906-.529-1.111l-.668-.334 5.402-4.727.66 7.258-.395-.197c-.261-.13-.562-.14-.83-.029s-.475.333-.565.607c-.049.144-4.936 14.239-17.98 13.319-.178-.013-.357.022-.519.103l-3.552 1.776-3.553-1.776c-.161-.08-.338-.114-.519-.103-13.03.912-17.785-12.737-17.98-13.32-.092-.274-.299-.496-.566-.606-.269-.11-.57-.101-.829.029l-.395.197.66-7.258 5.402 4.727-.668.334c-.41.205-.629.663-.529 1.111 1.218 5.479 6.324 7.781 13.653 6.167z"/><path d="m17.485 54.857c4.23 2.538 10.977 3.026 13.515 3.12v1.023c0 .553.447 1 1 1s1-.447 1-1v-1.023c2.537-.094 9.285-.582 13.515-3.12.474-.284.627-.898.343-1.372s-.898-.627-1.372-.343c-3.758 2.255-10.061 2.729-12.485 2.83v-19.972c0-.553-.447-1-1-1s-1 .447-1 1v19.973c-2.423-.099-8.721-.571-12.485-2.83-.475-.284-1.088-.131-1.372.343s-.132 1.087.341 1.371z"/></g></svg>