<svg id="Layer_5" enable-background="new 0 0 64 64" height="512" viewBox="0 0 64 64" width="512" xmlns="http://www.w3.org/2000/svg"><path d="m16 32v6h-2-6-2v-6h3 4z" fill="#fcd770"/><path d="m18 54v8h-14v-8h4 6z" fill="#fcd770"/><path d="m13 23.81v8.19h-4v-7.51z" fill="#aab2bd"/><path d="m8 38h6v16h-6z" fill="#aab2bd"/><path d="m44.24 10.32 4.3 7.44-11.88 2.02c-1.24-1.11-2.86-1.78-4.66-1.78-2.64 0-4.94 1.46-6.13 3.62h-.01l-12.86 2.19-4 .68-2.69.46c-.21.03-.41.05-.62.05-1.02 0-1.94-.41-2.61-1.08s-1.08-1.59-1.08-2.61v-1.16c0-1.81 1.32-3.36 3.11-3.64z" fill="#ccd1d9"/><path d="m60.79 13.57c.78.92 1.21 2.09 1.21 3.31 0 1.42-.57 2.7-1.5 3.62-.89.9-2.13 1.47-3.5 1.49-.04.01-.08.01-.12.01h-3.88-2l-2.46-4.24-4.3-7.44-4.24-7.32v-1h8.62c1.51 0 2.94.66 3.91 1.81z" fill="#aab2bd"/><path d="m57 22v12h-4v-12h3.88c.04 0 .08 0 .12-.01z" fill="#aab2bd"/><path d="m57.73 16.15c.18.2.27.46.27.73 0 .62-.5 1.12-1.12 1.12h-3.57l-6.95-12h2.26c.34 0 .65.15.86.4z" fill="#e6e9ed"/><path d="m35.3 45 .63 4h-7.86l.63-4z" fill="#b27946"/><path d="m42 61.91v.09h-4.01l-2.06-13-.63-4-2.07-13.11c1.44-.25 2.73-.95 3.72-1.94z" fill="#cf9e76"/><path d="m30.77 31.89-2.07 13.11-.63 4h-.01l-2.05 13h-4.01c0-.03 0-.06 0-.1l5.05-31.95c.99.99 2.28 1.69 3.72 1.94z" fill="#cf9e76"/><path d="m33.23 31.89c-.4.07-.81.11-1.23.11s-.83-.04-1.23-.11c-1.44-.25-2.73-.95-3.72-1.94v-.01c-1.27-1.27-2.05-3-2.05-4.94 0-1.23.31-2.38.86-3.38h.01c1.19-2.16 3.49-3.62 6.13-3.62 1.8 0 3.42.67 4.66 1.78 1.44 1.28 2.34 3.14 2.34 5.22 0 1.94-.78 3.67-2.05 4.94v.01c-.99.99-2.28 1.69-3.72 1.94z" fill="#fcd770"/><circle cx="32" cy="25" fill="#ffeaa7" r="3"/><path d="m60.91 47.29c.71 1.12 1.09 2.41 1.09 3.74 0 3.85-3.12 6.97-6.97 6.97h-.06c-1.93 0-3.67-.78-4.93-2.04s-2.04-3-2.04-4.93c0-1.33.38-2.62 1.09-3.74l5.91-9.29z" fill="#fcd770"/><path d="m56.83 46.463-1.688 1.074 1.55 2.435c.202.317.308.683.308 1.058 0 1.086-.884 1.97-2.03 1.97l.06 2c2.189 0 3.97-1.781 3.97-3.97 0-.756-.214-1.493-.621-2.132z"/><path d="m55 36.137-6.754 10.613c-.815 1.281-1.246 2.761-1.246 4.28 0 4.395 3.575 7.97 8.03 7.97 4.395 0 7.97-3.575 7.97-7.97 0-1.519-.431-2.999-1.246-4.279zm-.03 20.863c-3.292 0-5.97-2.678-5.97-5.97 0-1.138.323-2.246.934-3.206l5.066-7.961 5.066 7.962c.611.959.934 2.067.934 3.205 0 3.292-2.678 5.97-6.03 5.97z"/><path d="m38.015 30.257c1.232-1.407 1.985-3.244 1.985-5.257 0-1.682-.525-3.243-1.415-4.532l9.442-1.607 2.396 4.139h1.577v12h6v-12.108c2.841-.53 5-3.023 5-6.016 0-1.446-.515-2.851-1.449-3.955l-8.252-9.753c-1.167-1.378-2.87-2.168-4.675-2.168h-9.624v2.269l3.643 6.293-37.687 5.958c-2.292.363-3.956 2.311-3.956 4.631v1.161c0 2.585 2.103 4.688 4.688 4.688.263 0 .526-.022.787-.066l1.525-.26v5.326h-3v8h2v14h-4v8h-2v2h62v-2h-20.157zm-19.015 30.743v-8h-4v-14h2v-8h-3v-6.347l10.289-1.751c-.183.669-.289 1.371-.289 2.098 0 2.013.753 3.849 1.985 5.257l-4.852 30.743zm13-30c-3.309 0-6-2.691-6-6s2.691-6 6-6 6 2.691 6 6-2.691 6-6 6zm-2.449 15h4.898l.316 2h-5.529zm.316-2 1.739-11.02c.132.007.261.02.394.02s.263-.013.394-.02l1.739 11.02zm-2.098-12.223c.578.362 1.201.659 1.865.865l-4.475 28.358h-2.001zm1.151 18.223h6.161l1.736 11h-9.633zm5.446-17.358c.664-.206 1.287-.503 1.865-.865l4.611 29.223h-2.001zm19.634.358v-10h2v10zm-5.376-30c1.215 0 2.362.532 3.147 1.46l8.253 9.753c.629.744.976 1.69.976 2.664 0 2.273-1.85 4.123-4.123 4.123h-5.3l-10.422-18zm-42.484 20.962c-.149.025-.3.038-.452.038-1.482 0-2.688-1.206-2.688-2.688v-1.161c0-1.331.954-2.447 2.269-2.655l38.448-6.079 3.241 5.598-10.019 1.705c-1.362-1.074-3.075-1.72-4.939-1.72-2.831 0-5.317 1.482-6.739 3.707zm3.86 1.372 2-.34v6.006h-2zm-3 7.666h8v4h-8zm2 6h4v14h-4zm-4 16h12v6h-12z"/><path d="m32 21c-2.206 0-4 1.794-4 4s1.794 4 4 4 4-1.794 4-4-1.794-4-4-4zm0 6c-1.103 0-2-.897-2-2s.897-2 2-2 2 .897 2 2-.897 2-2 2z"/><path d="m56.877 19c1.171 0 2.123-.953 2.123-2.124 0-.502-.179-.989-.503-1.371l-8.253-9.754c-.405-.477-.995-.751-1.62-.751h-4l8.105 14zm-8.253-12c.037 0 .07.016.094.043l8.282 9.833c0 .067-.056.124-.123.124h-2.994l-5.79-10z"/></svg>