<svg enable-background="new 0 0 512 512" viewBox="0 0 512 512" xmlns="http://www.w3.org/2000/svg"><g id="Order"><g id="XMLID_662_"><g id="XMLID_610_"><g id="XMLID_1586_"><g id="XMLID_1610_"><path id="XMLID_228_" d="m80.01 263.99h351.98v63.99h-351.98z" fill="#74e8ff"/></g><g id="XMLID_1609_"><path id="XMLID_230_" d="m399.99 128c11.04 0 20 8.95 20 20 0 5.52-2.24 10.52-5.86 14.14s-8.62 5.86-14.14 5.86h-20v-40z" fill="#d9e3fe"/></g><g id="XMLID_1608_"><path id="XMLID_231_" d="m284 159v18c0 17.12-13.88 30.99-31 30.99h-17v-79.99h17c17.12 0 31 13.88 31 31z" fill="#d9e3fe"/></g><g id="XMLID_1595_"><path id="XMLID_288_" d="m184.01 128c11.04 0 19.99 8.95 19.99 20 0 5.52-2.24 10.52-5.86 14.14-3.61 3.62-8.61 5.86-14.13 5.86h-20v-40z" fill="#d9e3fe"/></g><g id="XMLID_1594_"><path id="XMLID_301_" d="m132.01 148v40c0 11.04-8.95 19.99-20 19.99-11.04 0-20-8.95-20-19.99v-40c0-11.05 8.96-20 20-20 5.53 0 10.53 2.24 14.14 5.86 3.62 3.61 5.86 8.61 5.86 14.14z" fill="#d9e3fe"/></g><g id="XMLID_1587_"><path id="XMLID_304_" d="m164.01 168h20c5.52 0 10.52-2.24 14.13-5.86 3.62-3.62 5.86-8.62 5.86-14.14 0-11.05-8.95-20-19.99-20h-20zm215.98 0h20c5.52 0 10.52-2.24 14.14-5.86s5.86-8.62 5.86-14.14c0-11.05-8.96-20-20-20h-20zm106.99-78.74v294.72h-152.99l-21.99 24h-112l-21.99-24h-145.99v-294.72c0-18.36 14.89-33.25 33.26-33.25h388.44c18.37 0 33.26 14.89 33.26 33.25zm-54.99 238.72v-63.99h-351.98v63.99zm-147.99-150.98v-18c0-17.12-13.88-31-31-31h-17v79.99h17c17.12 0 31-13.87 31-30.99zm-151.99 11v-40c0-5.53-2.24-10.53-5.86-14.14-3.61-3.62-8.61-5.86-14.14-5.86-11.04 0-20 8.95-20 20v40c0 11.04 8.96 19.99 20 19.99 11.05 0 20-8.95 20-19.99z" fill="#d9e3fe"/></g></g><g id="XMLID_697_"><g id="XMLID_1567_"><path id="XMLID_3027_" d="m486.98 391.98c-4.418 0-8-3.582-8-8v-294.72c0-13.923-11.332-25.25-25.261-25.25h-388.439c-13.929 0-25.261 11.327-25.261 25.25v294.72c0 4.418-3.582 8-8 8s-8-3.582-8-8v-294.72c0-22.745 18.51-41.25 41.261-41.25h388.44c22.751 0 41.261 18.505 41.261 41.25v294.72c-.001 4.418-3.583 8-8.001 8z" fill="#6060a0"/></g><g id="XMLID_227_" fill="#ff7b4a"><path id="XMLID_1507_" d="m112.005 120.01c-15.439 0-28.005 12.561-28.005 28v40c0 15.434 12.561 27.99 28 27.99s28-12.556 28-27.99v-40c0-7.49-2.914-14.523-8.193-19.789-5.28-5.295-12.311-8.211-19.802-8.211zm11.995 68c0 6.611-5.383 11.99-12 11.99s-12-5.379-12-11.99v-40c0-6.617 5.388-12 12.005-12 3.209 0 6.216 1.247 8.489 3.524 2.263 2.257 3.506 5.267 3.506 8.476z"/><path id="XMLID_2908_" d="m203.797 167.802c5.29-5.29 8.203-12.323 8.203-19.799 0-15.44-12.557-28.003-27.99-28.003h-20c-4.418 0-8.01 3.591-8.01 8.01v40 39.99c0 4.418 3.582 8 8 8s8-3.582 8-8v-15.99.001c8 10.012 19.476 15.989 31.995 15.989 4.418 0 8.003-3.582 8.003-8 0-4.419-3.581-8-7.999-8-7.511 0-14.684-3.59-19.189-9.595l-4.8-6.405h3.999c7.486 0 14.516-2.911 19.788-8.198zm-31.797-31.802h12.01c6.611 0 11.99 5.388 11.99 12.005 0 3.203-1.249 6.213-3.525 8.489-2.256 2.262-5.262 3.506-8.465 3.506h-12.01z"/><path id="XMLID_2918_" d="m419.99 192c-7.517 0-14.695-3.59-19.2-9.595l-4.8-6.405h4c7.477 0 14.507-2.908 19.797-8.198s8.203-12.323 8.203-19.799c0-15.439-12.56-28.002-28-28.002h-20c-4.418 0-7.99 3.591-7.99 8.01v40 39.989c0 4.418 3.582 8 8 8s8-3.582 8-8v-15.989c8 10.012 19.47 15.989 31.995 15.989 4.418 0 7.998-3.582 7.998-8 0-4.419-3.585-8-8.003-8zm-31.99-56h11.99c6.617 0 12 5.388 12 12.005 0 3.203-1.249 6.213-3.518 8.481-2.268 2.268-5.28 3.514-8.482 3.514h-11.99z"/><path id="XMLID_2921_" d="m253 120h-17c-4.418 0-8 3.591-8 8.01v79.99c0 4.418 3.582 8 8 8h17c21.505 0 39-17.491 39-38.99v-18c0-21.505-17.495-39.01-39-39.01zm23 57.01c0 12.677-10.317 22.99-23 22.99h-9v-64h9c12.683 0 23 10.328 23 23.01z"/><path id="XMLID_2925_" d="m348 136c4.418 0 8-3.582 8-8 0-4.419-3.582-8-8-8h-32c-4.418 0-8 3.581-8 8v80c0 4.418 3.582 8 8 8h32c4.418 0 8-3.582 8-8 0-4.419-3.582-8-8-8h-24v-24h16c4.418 0 8-3.582 8-8 0-4.419-3.582-8-8-8h-16v-24z"/></g><path id="XMLID_638_" d="m503.98 376h-169.99c-2.243 0-4.383.941-5.898 2.596l-19.613 21.404h-104.958l-19.612-21.404c-1.516-1.654-3.655-2.596-5.898-2.596h-169.992c-4.417 0-8.019 3.572-8.019 7.99v8c0 39.695 32.318 72.01 72.019 72.01h367.961c39.701 0 72.02-32.315 72.02-72.01v-8c0-4.418-3.602-7.99-8.02-7.99z" fill="#4e4e8e"/></g></g></g></g><g id="Layer_1"/></svg>