<svg height="1.707in" style="enable-background:new 0 0 240 240;shape-rendering:geometricPrecision;text-rendering:geometricPrecision;image-rendering:optimizeQuality;fill-rule:evenodd;clip-rule:evenodd" viewBox="0 0 1707 1707" width="1.707in" xmlns="http://www.w3.org/2000/svg"><g id="Layer_x0020_1"><path d="m1420 1707h-1133c-48 0-86-39-86-86v-1536c0-47 38-85 86-85h843c6 0 11 2 14 6l356 359c3 3 5 8 5 14v1242c0 47-38 86-85 86zm-1133-1667c-25 0-46 20-46 45v1536c0 25 21 46 46 46h1133c25 0 45-21 45-46v-1234l-343-347z"/><path d="m1485 399h-355c-11 0-20-9-20-20v-359c0-11 9-20 20-20s20 9 20 20v339h335c11 0 20 9 20 20s-9 20-20 20z"/><path d="m1365 1548h-179c-11 0-20-9-20-20v-640c0-11 9-20 20-20h179c11 0 20 9 20 20v640c0 11-9 20-20 20zm-159-40h139v-600h-139z"/><path d="m1084 1548h-180c-11 0-20-9-20-20v-449c0-11 9-20 20-20h180c11 0 20 9 20 20v449c0 11-9 20-20 20zm-160-40h140v-409h-140z"/><path d="m802 1548h-179c-11 0-20-9-20-20v-334c0-11 9-20 20-20h179c11 0 20 9 20 20v334c0 11-9 20-20 20zm-159-40h139v-294h-139z"/><path d="m521 1548h-179c-11 0-20-9-20-20v-221c0-11 9-20 20-20h179c11 0 20 9 20 20v221c0 11-9 20-20 20zm-159-40h139v-181h-139z"/><path d="m617 617c-126 0-229-103-229-229 0-127 103-230 229-230 127 0 230 103 230 230 0 126-103 229-230 229zm0-419c-104 0-189 85-189 190 0 104 85 189 189 189 105 0 190-85 190-189 0-105-85-190-190-190z"/><path d="m1334 520h-364c-11 0-20-9-20-20s9-20 20-20h364c11 0 20 9 20 20s-9 20-20 20z"/><path d="m1334 643h-364c-11 0-20-8-20-20 0-11 9-20 20-20h364c11 0 20 9 20 20 0 12-9 20-20 20z"/><path d="m1334 767h-364c-11 0-20-9-20-20s9-20 20-20h364c11 0 20 9 20 20s-9 20-20 20z"/><path d="m753 758h-364c-11 0-20-9-20-20s9-20 20-20h364c11 0 20 9 20 20s-9 20-20 20z"/><path d="m753 904h-364c-11 0-20-9-20-20s9-20 20-20h364c11 0 20 9 20 20s-9 20-20 20z"/><path d="m753 1049h-364c-11 0-20-9-20-20s9-20 20-20h364c11 0 20 9 20 20s-9 20-20 20z"/><path d="m428 388c0 104 85 189 189 189 98 0 179-74 189-169h-189c-11 0-20-9-20-20v-189c-95 10-169 91-169 189z" fill="#fb3b6c"/><path d="m637 368h169c-10-89-80-159-169-169z" fill="#fcdc5b"/><path d="m1206 908v600h139v-600z" fill="#19a19d"/><path d="m1064 1508v-409h-140v409z" fill="#7fe289"/><path d="m782 1508v-294h-139v294z" fill="#ff7a1b"/><path d="m501 1508v-181h-139v181z" fill="#fcdc5b"/><path d="m1150 359h288l-288-290z" fill="#40596b"/><path d="m1110 379v-339h-823c-25 0-46 20-46 45v1536c0 25 21 46 46 46h1133c25 0 45-21 45-46v-1222h-335c-11 0-20-9-20-20zm-721 485h364c11 0 20 9 20 20s-9 20-20 20h-364c-11 0-20-9-20-20s9-20 20-20zm0 145h364c11 0 20 9 20 20s-9 20-20 20h-364c-11 0-20-9-20-20s9-20 20-20zm214 185c0-11 9-20 20-20h179c11 0 20 9 20 20v334c0 11-9 20-20 20h-179c-11 0-20-9-20-20zm-62 113v221c0 11-9 20-20 20h-179c-11 0-20-9-20-20v-221c0-11 9-20 20-20h179c11 0 20 9 20 20zm409-807c0-11 9-20 20-20h364c11 0 20 9 20 20s-9 20-20 20h-364c-11 0-20-9-20-20zm20 103h364c11 0 20 9 20 20 0 12-9 20-20 20h-364c-11 0-20-8-20-20 0-11 9-20 20-20zm0 124h364c11 0 20 9 20 20s-9 20-20 20h-364c-11 0-20-9-20-20s9-20 20-20zm-66 332h180c11 0 20 9 20 20v449c0 11-9 20-20 20h-180c-11 0-20-9-20-20v-449c0-11 9-20 20-20zm-57-671c0 126-103 229-230 229-126 0-229-103-229-229 0-127 103-230 229-230 127 0 230 103 230 230zm-458 330h364c11 0 20 9 20 20s-9 20-20 20h-364c-11 0-20-9-20-20s9-20 20-20zm777 810v-640c0-11 9-20 20-20h179c11 0 20 9 20 20v640c0 11-9 20-20 20h-179c-11 0-20-9-20-20z" fill="#e8ebf1"/><path d="m827 408h-210c-11 0-20-9-20-20v-210c0-11 9-20 20-20s20 9 20 20v190h190c11 0 20 9 20 20s-9 20-20 20z"/></g></svg>