<svg clip-rule="evenodd" fill-rule="evenodd" height="512" image-rendering="optimizeQuality" shape-rendering="geometricPrecision" text-rendering="geometricPrecision" viewBox="0 0 4335 4335" width="512" xmlns="http://www.w3.org/2000/svg" xmlns:xlink="http://www.w3.org/1999/xlink"><linearGradient id="id0" gradientUnits="userSpaceOnUse" x1="2167.47" x2="2167.47" y1="4334.93" y2="-.01"><stop offset="0" stop-color="#1aa8dc"/><stop offset=".490196" stop-color="#ae3b89"/><stop offset="1" stop-color="#f26270"/></linearGradient><g id="Layer_x0020_1"><path d="m3374 4335c-254 0-468-174-532-408h477c35 0 65-27 65-62 0-34-27-61-61-61h-500c-1-8-1-16-1-24v-268h497c35 0 62-27 62-62 0-34-27-61-62-61h-497v-292h497c35 0 62-27 62-61 0-35-27-62-62-62h-497v-291h497c35 0 62-28 62-62s-27-62-62-62h-497v-243h1114v1464c-3 308-253 555-562 555zm-1020-3091-1307-469c-32-12-49-47-37-79l191-532c46-129 187-196 316-149l955 343c11 4 22 9 33 14v562c0 16 2 31 6 46l-83 229c-7 30-42 47-74 35zm-1783 2908c-239-86-382-322-363-564l449 161c32 12 71-4 82-36 12-32-5-67-37-79l-471-169c3-7 5-15 8-22l90-252 468 168c32 11 68-5 79-38 12-32-5-67-37-78l-468-168 98-275 468 168c33 12 68-5 79-37 12-32-5-67-37-79l-468-168 99-274 467 168c33 11 68-5 79-37 12-33-5-68-37-79l-468-168 83-229 1048 376-494 1378c-108 289-427 437-717 333zm204-2203 365-1018 1049 376-365 1018zm3295-953h-1388c-35 0-62-27-62-62v-565c0-138 110-247 247-247h1015c137 0 246 109 246 247v569c4 31-24 58-58 58zm-1248 1196v-1081h1114v1081z" fill="url(#id0)"/></g></svg>