<svg xmlns="http://www.w3.org/2000/svg" id="Layer_1" data-name="Layer 1" width="462.64" height="274.18" viewBox="0 0 462.64 274.18"><defs><style>      .cls-1 {        fill: #002f87;      }      .cls-2 {        fill: #faaf40;      }    </style></defs><title>UTEX logo_Final Logo_without tagline</title><g><g><path class="cls-1" d="M69.44,175a1.44,1.44,0,0,1,1.34-1.34H88.22A1.44,1.44,0,0,1,89.56,175v33c0,21.68-13.3,33.86-35.31,33.86S18.93,229.64,18.93,208V175a1.44,1.44,0,0,1,1.34-1.34H37.71A1.44,1.44,0,0,1,39.05,175v32.63c0,11.51,5.81,17.32,15.2,17.32,9.6,0,15.19-5.81,15.19-17.32Z"></path><path class="cls-1" d="M143.09,190.64a1.9,1.9,0,0,1-1.56-1.57V175.21a1.89,1.89,0,0,1,1.56-1.56h64.37a1.89,1.89,0,0,1,1.56,1.56v13.86a1.9,1.9,0,0,1-1.56,1.57H185.33v48.72A1.44,1.44,0,0,1,184,240.7H166.56a1.44,1.44,0,0,1-1.34-1.34V190.64Z"></path><path class="cls-1" d="M281.66,214.77v8.94h36.66a1.9,1.9,0,0,1,1.56,1.57v13.86a1.9,1.9,0,0,1-1.56,1.56H262.89a1.44,1.44,0,0,1-1.34-1.34V175a1.44,1.44,0,0,1,1.34-1.34h55a1.9,1.9,0,0,1,1.57,1.56v13.86a1.91,1.91,0,0,1-1.57,1.57H281.66v8.27h32.86a1.89,1.89,0,0,1,1.56,1.56v12.74a1.89,1.89,0,0,1-1.56,1.56Z"></path><path class="cls-1" d="M407.16,191.31h.23s2.12-3.47,3.46-5.26l8-10.84c1-1.34,1.45-1.56,2.79-1.56h20.68a.64.64,0,0,1,.67.67,1.9,1.9,0,0,1-.45,1L419,207.06s16.2,21.46,24.25,32.08c.34.44.45.66.45.89a.65.65,0,0,1-.67.67H421.92a3.06,3.06,0,0,1-2.91-1.34L405.94,222h-.23s-1.9,3.35-3,4.91l-8.72,12a4,4,0,0,1-3.46,1.79H370a.64.64,0,0,1-.67-.67c0-.23.11-.45.45-.89l24.14-33-23.25-31a2.19,2.19,0,0,1-.44-.89.64.64,0,0,1,.67-.67h21.23c1.34,0,1.9.22,2.91,1.56Z"></path></g><g><g><path class="cls-1" d="M180.1,87h-1.41a52,52,0,0,1,52-51.95v1.41A50.6,50.6,0,0,0,180.1,87Z"></path><path class="cls-1" d="M181.45,88.35h-4.1V87a53.35,53.35,0,0,1,53.3-53.29H232V37.8h-1.34A49.26,49.26,0,0,0,181.45,87Z"></path></g><g><path class="cls-1" d="M192.84,87h-1.4a39.25,39.25,0,0,1,39.21-39.2v1.4A37.85,37.85,0,0,0,192.84,87Z"></path><path class="cls-1" d="M194.19,88.35h-4.1V87a40.6,40.6,0,0,1,40.56-40.55H232v4.1h-1.34A36.49,36.49,0,0,0,194.19,87Z"></path></g><g><path class="cls-1" d="M205.72,87h-1.4a26.36,26.36,0,0,1,26.33-26.32v1.4A25,25,0,0,0,205.72,87Z"></path><path class="cls-1" d="M207.07,88.35H203V87a27.71,27.71,0,0,1,27.68-27.67H232v4.1h-1.34A23.6,23.6,0,0,0,207.07,87Z"></path></g><g><path class="cls-1" d="M180.1,87h-1.41a52,52,0,0,0,52,52v-1.41A50.6,50.6,0,0,1,180.1,87Z"></path><path class="cls-1" d="M232,140.3h-1.34A53.36,53.36,0,0,1,177.35,87V85.66h4.1V87a49.25,49.25,0,0,0,49.2,49.2H232Z"></path></g><g><path class="cls-1" d="M192.84,87h-1.4a39.26,39.26,0,0,0,39.21,39.21v-1.4A37.85,37.85,0,0,1,192.84,87Z"></path><path class="cls-1" d="M232,127.56h-1.34A40.6,40.6,0,0,1,190.09,87V85.66h4.1V87a36.49,36.49,0,0,0,36.46,36.46H232Z"></path></g><g><path class="cls-1" d="M205.72,87h-1.4a26.36,26.36,0,0,0,26.33,26.33v-1.4A25,25,0,0,1,205.72,87Z"></path><path class="cls-1" d="M232,114.68h-1.34A27.71,27.71,0,0,1,203,87V85.66h4.1V87a23.61,23.61,0,0,0,23.58,23.58H232Z"></path></g><path class="cls-2" d="M256.62,87a26,26,0,0,0-26-26v-26a52,52,0,0,1,52,52Z"></path><path class="cls-2" d="M285.29,89.7H253.93V87a23.31,23.31,0,0,0-23.28-23.28H228V32.36h2.7A54.7,54.7,0,0,1,285.29,87Zm-26.1-5.39h20.64a49.32,49.32,0,0,0-46.49-46.49V58.46A28.73,28.73,0,0,1,259.19,84.31Z"></path><path class="cls-2" d="M256.62,87a26,26,0,0,1-26,26v26a52,52,0,0,0,52-52Z"></path><path class="cls-2" d="M230.65,141.65H228V110.29h2.7A23.31,23.31,0,0,0,253.93,87V84.31h31.36V87A54.7,54.7,0,0,1,230.65,141.65Zm2.69-26.1v20.64A49.32,49.32,0,0,0,279.83,89.7H259.19A28.73,28.73,0,0,1,233.34,115.55Z"></path></g></g></svg>